<mxfile host="app.diagrams.net" agent="Mozilla/5.0 (Windows NT 10.0; Win64; x64) AppleWebKit/537.36 (KHTML, like Gecko) Chrome/134.0.0.0 Safari/537.36 Edg/134.0.0.0" version="26.1.1">
  <diagram id="C5RBs43oDa-KdzZeNtuy" name="Page-1">
    <mxGraphModel dx="1040" dy="656" grid="1" gridSize="10" guides="1" tooltips="1" connect="1" arrows="1" fold="1" page="1" pageScale="1" pageWidth="827" pageHeight="1169" math="0" shadow="0">
      <root>
        <mxCell id="WIyWlLk6GJQsqaUBKTNV-0" />
        <mxCell id="WIyWlLk6GJQsqaUBKTNV-1" parent="WIyWlLk6GJQsqaUBKTNV-0" />
        <mxCell id="inh57ktwLk6tola9zbLV-4" value="" style="edgeStyle=orthogonalEdgeStyle;rounded=0;orthogonalLoop=1;jettySize=auto;html=1;strokeWidth=1;fontSize=8;" edge="1" parent="WIyWlLk6GJQsqaUBKTNV-1" source="inh57ktwLk6tola9zbLV-0" target="inh57ktwLk6tola9zbLV-3">
          <mxGeometry relative="1" as="geometry" />
        </mxCell>
        <mxCell id="inh57ktwLk6tola9zbLV-0" value="&lt;b&gt;START&lt;/b&gt;" style="ellipse;whiteSpace=wrap;html=1;fillColor=light-dark(#003A48,#EDEDED);strokeColor=none;gradientColor=light-dark(#67AB9F,#EDEDED);fillStyle=hatch;fontColor=#FFFFFF;fontSize=17;" vertex="1" parent="WIyWlLk6GJQsqaUBKTNV-1">
          <mxGeometry x="220" y="180" width="120" height="80" as="geometry" />
        </mxCell>
        <mxCell id="inh57ktwLk6tola9zbLV-6" value="" style="edgeStyle=orthogonalEdgeStyle;rounded=0;orthogonalLoop=1;jettySize=auto;html=1;" edge="1" parent="WIyWlLk6GJQsqaUBKTNV-1" source="inh57ktwLk6tola9zbLV-3" target="inh57ktwLk6tola9zbLV-5">
          <mxGeometry relative="1" as="geometry" />
        </mxCell>
        <mxCell id="inh57ktwLk6tola9zbLV-3" value="&lt;font style=&quot;color: rgb(0, 0, 0);&quot;&gt;LogIn Page&lt;/font&gt;" style="whiteSpace=wrap;html=1;fontSize=17;fillColor=#e6d0de;strokeColor=none;gradientColor=#d5739d;fillStyle=hatch;" vertex="1" parent="WIyWlLk6GJQsqaUBKTNV-1">
          <mxGeometry x="420" y="190" width="120" height="60" as="geometry" />
        </mxCell>
        <mxCell id="QzwW5SckIYLt7hIqHZq7-3" value="" style="edgeStyle=orthogonalEdgeStyle;rounded=0;orthogonalLoop=1;jettySize=auto;html=1;" edge="1" parent="WIyWlLk6GJQsqaUBKTNV-1" source="inh57ktwLk6tola9zbLV-5" target="QzwW5SckIYLt7hIqHZq7-2">
          <mxGeometry relative="1" as="geometry" />
        </mxCell>
        <mxCell id="QzwW5SckIYLt7hIqHZq7-8" value="&lt;font style=&quot;font-size: 13px;&quot;&gt;YES&lt;/font&gt;" style="edgeLabel;html=1;align=center;verticalAlign=middle;resizable=0;points=[];" vertex="1" connectable="0" parent="QzwW5SckIYLt7hIqHZq7-3">
          <mxGeometry x="-0.0612" relative="1" as="geometry">
            <mxPoint x="-1" as="offset" />
          </mxGeometry>
        </mxCell>
        <mxCell id="QzwW5SckIYLt7hIqHZq7-5" value="" style="edgeStyle=orthogonalEdgeStyle;rounded=0;orthogonalLoop=1;jettySize=auto;html=1;entryX=0.5;entryY=0;entryDx=0;entryDy=0;" edge="1" parent="WIyWlLk6GJQsqaUBKTNV-1" source="inh57ktwLk6tola9zbLV-5" target="QzwW5SckIYLt7hIqHZq7-6">
          <mxGeometry relative="1" as="geometry">
            <mxPoint x="480.0000000000002" y="620" as="targetPoint" />
          </mxGeometry>
        </mxCell>
        <mxCell id="QzwW5SckIYLt7hIqHZq7-7" value="NO" style="edgeLabel;html=1;align=center;verticalAlign=middle;resizable=0;points=[];fontSize=14;" vertex="1" connectable="0" parent="QzwW5SckIYLt7hIqHZq7-5">
          <mxGeometry x="-0.2905" y="3" relative="1" as="geometry">
            <mxPoint as="offset" />
          </mxGeometry>
        </mxCell>
        <mxCell id="inh57ktwLk6tola9zbLV-5" value="&lt;font style=&quot;font-size: 16px;&quot;&gt;Are U Registered?&lt;/font&gt;" style="rhombus;whiteSpace=wrap;html=1;fontSize=23;fillColor=#fff2cc;strokeColor=none;gradientColor=#ffd966;fillStyle=hatch;" vertex="1" parent="WIyWlLk6GJQsqaUBKTNV-1">
          <mxGeometry x="423" y="315" width="115" height="150" as="geometry" />
        </mxCell>
        <mxCell id="QzwW5SckIYLt7hIqHZq7-35" value="" style="edgeStyle=orthogonalEdgeStyle;rounded=0;orthogonalLoop=1;jettySize=auto;html=1;" edge="1" parent="WIyWlLk6GJQsqaUBKTNV-1" source="QzwW5SckIYLt7hIqHZq7-2" target="QzwW5SckIYLt7hIqHZq7-34">
          <mxGeometry relative="1" as="geometry" />
        </mxCell>
        <mxCell id="QzwW5SckIYLt7hIqHZq7-2" value="&lt;font style=&quot;font-size: 16px;&quot;&gt;&lt;b style=&quot;&quot;&gt;Input Username&amp;nbsp;&lt;/b&gt;&lt;/font&gt;&lt;div&gt;&lt;font style=&quot;font-size: 16px;&quot;&gt;&lt;b style=&quot;&quot;&gt;&amp;amp; Pass&lt;/b&gt;&lt;/font&gt;&lt;/div&gt;" style="shape=parallelogram;perimeter=parallelogramPerimeter;whiteSpace=wrap;html=1;fixedSize=1;fontSize=23;fillColor=#f8cecc;strokeColor=none;gradientColor=#ea6b66;fillStyle=hatch;" vertex="1" parent="WIyWlLk6GJQsqaUBKTNV-1">
          <mxGeometry x="620" y="345" width="120" height="90" as="geometry" />
        </mxCell>
        <mxCell id="QzwW5SckIYLt7hIqHZq7-10" value="" style="edgeStyle=orthogonalEdgeStyle;rounded=0;orthogonalLoop=1;jettySize=auto;html=1;" edge="1" parent="WIyWlLk6GJQsqaUBKTNV-1" source="QzwW5SckIYLt7hIqHZq7-6" target="QzwW5SckIYLt7hIqHZq7-9">
          <mxGeometry relative="1" as="geometry" />
        </mxCell>
        <mxCell id="QzwW5SckIYLt7hIqHZq7-6" value="Register &lt;br&gt;Page" style="shape=parallelogram;perimeter=parallelogramPerimeter;whiteSpace=wrap;html=1;fixedSize=1;fillColor=#f8cecc;gradientColor=#ea6b66;strokeColor=none;fontSize=15;" vertex="1" parent="WIyWlLk6GJQsqaUBKTNV-1">
          <mxGeometry x="420" y="540" width="120" height="75" as="geometry" />
        </mxCell>
        <mxCell id="QzwW5SckIYLt7hIqHZq7-15" value="" style="edgeStyle=orthogonalEdgeStyle;rounded=0;orthogonalLoop=1;jettySize=auto;html=1;" edge="1" parent="WIyWlLk6GJQsqaUBKTNV-1" source="QzwW5SckIYLt7hIqHZq7-9" target="QzwW5SckIYLt7hIqHZq7-14">
          <mxGeometry relative="1" as="geometry" />
        </mxCell>
        <mxCell id="QzwW5SckIYLt7hIqHZq7-9" value="Input Details" style="shape=parallelogram;perimeter=parallelogramPerimeter;whiteSpace=wrap;html=1;fixedSize=1;fontSize=15;fillColor=#f8cecc;strokeColor=none;gradientColor=#ea6b66;" vertex="1" parent="WIyWlLk6GJQsqaUBKTNV-1">
          <mxGeometry x="420" y="660" width="120" height="60" as="geometry" />
        </mxCell>
        <mxCell id="QzwW5SckIYLt7hIqHZq7-17" value="" style="edgeStyle=orthogonalEdgeStyle;rounded=0;orthogonalLoop=1;jettySize=auto;html=1;" edge="1" parent="WIyWlLk6GJQsqaUBKTNV-1" source="QzwW5SckIYLt7hIqHZq7-14" target="QzwW5SckIYLt7hIqHZq7-16">
          <mxGeometry relative="1" as="geometry" />
        </mxCell>
        <mxCell id="QzwW5SckIYLt7hIqHZq7-19" value="NO" style="edgeLabel;html=1;align=center;verticalAlign=middle;resizable=0;points=[];fontSize=14;" vertex="1" connectable="0" parent="QzwW5SckIYLt7hIqHZq7-17">
          <mxGeometry x="-0.2381" y="1" relative="1" as="geometry">
            <mxPoint as="offset" />
          </mxGeometry>
        </mxCell>
        <mxCell id="QzwW5SckIYLt7hIqHZq7-24" value="" style="edgeStyle=orthogonalEdgeStyle;rounded=0;orthogonalLoop=1;jettySize=auto;html=1;" edge="1" parent="WIyWlLk6GJQsqaUBKTNV-1" source="QzwW5SckIYLt7hIqHZq7-14" target="QzwW5SckIYLt7hIqHZq7-23">
          <mxGeometry relative="1" as="geometry" />
        </mxCell>
        <mxCell id="QzwW5SckIYLt7hIqHZq7-14" value="Is Details Valid?" style="rhombus;whiteSpace=wrap;html=1;fontSize=15;fillColor=#fff2cc;strokeColor=none;gradientColor=#ffd966;" vertex="1" parent="WIyWlLk6GJQsqaUBKTNV-1">
          <mxGeometry x="420" y="770" width="120" height="130" as="geometry" />
        </mxCell>
        <mxCell id="QzwW5SckIYLt7hIqHZq7-18" style="edgeStyle=orthogonalEdgeStyle;rounded=0;orthogonalLoop=1;jettySize=auto;html=1;entryX=1;entryY=0.5;entryDx=0;entryDy=0;" edge="1" parent="WIyWlLk6GJQsqaUBKTNV-1" source="QzwW5SckIYLt7hIqHZq7-16" target="QzwW5SckIYLt7hIqHZq7-9">
          <mxGeometry relative="1" as="geometry">
            <Array as="points">
              <mxPoint x="660" y="690" />
            </Array>
          </mxGeometry>
        </mxCell>
        <mxCell id="QzwW5SckIYLt7hIqHZq7-16" value="Display&lt;div&gt;&lt;span style=&quot;background-color: transparent; color: light-dark(rgb(0, 0, 0), rgb(255, 255, 255));&quot;&gt;&amp;nbsp;error Message&lt;/span&gt;&lt;/div&gt;" style="whiteSpace=wrap;html=1;fontSize=15;fillColor=#e6d0de;strokeColor=none;gradientColor=#d5739d;" vertex="1" parent="WIyWlLk6GJQsqaUBKTNV-1">
          <mxGeometry x="600" y="797.5" width="120" height="75" as="geometry" />
        </mxCell>
        <mxCell id="QzwW5SckIYLt7hIqHZq7-31" value="" style="edgeStyle=orthogonalEdgeStyle;rounded=0;orthogonalLoop=1;jettySize=auto;html=1;" edge="1" parent="WIyWlLk6GJQsqaUBKTNV-1" source="QzwW5SckIYLt7hIqHZq7-21" target="QzwW5SckIYLt7hIqHZq7-30">
          <mxGeometry relative="1" as="geometry" />
        </mxCell>
        <mxCell id="QzwW5SckIYLt7hIqHZq7-21" value="" style="shape=cylinder3;whiteSpace=wrap;html=1;boundedLbl=1;backgroundOutline=1;size=15;fillColor=#f5f5f5;gradientColor=#b3b3b3;strokeColor=#666666;" vertex="1" parent="WIyWlLk6GJQsqaUBKTNV-1">
          <mxGeometry x="450" y="1010" width="60" height="80" as="geometry" />
        </mxCell>
        <mxCell id="QzwW5SckIYLt7hIqHZq7-25" value="" style="edgeStyle=orthogonalEdgeStyle;rounded=0;orthogonalLoop=1;jettySize=auto;html=1;" edge="1" parent="WIyWlLk6GJQsqaUBKTNV-1" source="QzwW5SckIYLt7hIqHZq7-23" target="QzwW5SckIYLt7hIqHZq7-21">
          <mxGeometry relative="1" as="geometry" />
        </mxCell>
        <mxCell id="QzwW5SckIYLt7hIqHZq7-23" value="Get Details" style="whiteSpace=wrap;html=1;fontSize=15;fillColor=#e6d0de;strokeColor=none;gradientColor=#d5739d;" vertex="1" parent="WIyWlLk6GJQsqaUBKTNV-1">
          <mxGeometry x="420.5" y="920" width="120" height="60" as="geometry" />
        </mxCell>
        <mxCell id="QzwW5SckIYLt7hIqHZq7-73" value="" style="edgeStyle=orthogonalEdgeStyle;rounded=0;orthogonalLoop=1;jettySize=auto;html=1;" edge="1" parent="WIyWlLk6GJQsqaUBKTNV-1" source="QzwW5SckIYLt7hIqHZq7-28" target="QzwW5SckIYLt7hIqHZq7-21">
          <mxGeometry relative="1" as="geometry" />
        </mxCell>
        <mxCell id="QzwW5SckIYLt7hIqHZq7-28" value="&lt;b&gt;DB1&lt;/b&gt;" style="ellipse;whiteSpace=wrap;html=1;fillColor=light-dark(#003A48,#EDEDED);strokeColor=none;gradientColor=light-dark(#67AB9F,#EDEDED);fillStyle=hatch;fontColor=#FFFFFF;fontSize=15;" vertex="1" parent="WIyWlLk6GJQsqaUBKTNV-1">
          <mxGeometry x="560" y="1025" width="50" height="50" as="geometry" />
        </mxCell>
        <mxCell id="QzwW5SckIYLt7hIqHZq7-30" value="&lt;b&gt;1&lt;/b&gt;" style="ellipse;whiteSpace=wrap;html=1;fillColor=light-dark(#003A48,#EDEDED);strokeColor=none;gradientColor=light-dark(#67AB9F,#EDEDED);fillStyle=hatch;fontColor=#FFFFFF;fontSize=15;" vertex="1" parent="WIyWlLk6GJQsqaUBKTNV-1">
          <mxGeometry x="455" y="1110" width="50" height="50" as="geometry" />
        </mxCell>
        <mxCell id="QzwW5SckIYLt7hIqHZq7-74" value="" style="edgeStyle=orthogonalEdgeStyle;rounded=0;orthogonalLoop=1;jettySize=auto;html=1;" edge="1" parent="WIyWlLk6GJQsqaUBKTNV-1" source="QzwW5SckIYLt7hIqHZq7-32" target="inh57ktwLk6tola9zbLV-3">
          <mxGeometry relative="1" as="geometry" />
        </mxCell>
        <mxCell id="QzwW5SckIYLt7hIqHZq7-32" value="&lt;b&gt;1&lt;/b&gt;" style="ellipse;whiteSpace=wrap;html=1;fillColor=light-dark(#003A48,#EDEDED);strokeColor=none;gradientColor=light-dark(#67AB9F,#EDEDED);fillStyle=hatch;fontColor=#FFFFFF;fontSize=15;" vertex="1" parent="WIyWlLk6GJQsqaUBKTNV-1">
          <mxGeometry x="455" y="100" width="50" height="50" as="geometry" />
        </mxCell>
        <mxCell id="QzwW5SckIYLt7hIqHZq7-38" value="" style="edgeStyle=orthogonalEdgeStyle;rounded=0;orthogonalLoop=1;jettySize=auto;html=1;" edge="1" parent="WIyWlLk6GJQsqaUBKTNV-1" source="QzwW5SckIYLt7hIqHZq7-34" target="QzwW5SckIYLt7hIqHZq7-37">
          <mxGeometry relative="1" as="geometry" />
        </mxCell>
        <mxCell id="QzwW5SckIYLt7hIqHZq7-40" value="" style="edgeStyle=orthogonalEdgeStyle;rounded=0;orthogonalLoop=1;jettySize=auto;html=1;" edge="1" parent="WIyWlLk6GJQsqaUBKTNV-1" source="QzwW5SckIYLt7hIqHZq7-34" target="QzwW5SckIYLt7hIqHZq7-39">
          <mxGeometry relative="1" as="geometry" />
        </mxCell>
        <mxCell id="QzwW5SckIYLt7hIqHZq7-34" value="Get Details From Users Table" style="whiteSpace=wrap;html=1;fontSize=17;fillColor=#e6d0de;strokeColor=none;gradientColor=#d5739d;fillStyle=hatch;" vertex="1" parent="WIyWlLk6GJQsqaUBKTNV-1">
          <mxGeometry x="790" y="340" width="140" height="100" as="geometry" />
        </mxCell>
        <mxCell id="QzwW5SckIYLt7hIqHZq7-37" value="&lt;b&gt;DB1&lt;/b&gt;" style="ellipse;whiteSpace=wrap;html=1;fillColor=light-dark(#003A48,#EDEDED);strokeColor=none;gradientColor=light-dark(#67AB9F,#EDEDED);fillStyle=hatch;fontColor=#FFFFFF;fontSize=15;" vertex="1" parent="WIyWlLk6GJQsqaUBKTNV-1">
          <mxGeometry x="835" y="500" width="50" height="50" as="geometry" />
        </mxCell>
        <mxCell id="QzwW5SckIYLt7hIqHZq7-42" value="Tru" style="edgeStyle=orthogonalEdgeStyle;rounded=0;orthogonalLoop=1;jettySize=auto;html=1;" edge="1" parent="WIyWlLk6GJQsqaUBKTNV-1" source="QzwW5SckIYLt7hIqHZq7-39" target="QzwW5SckIYLt7hIqHZq7-41">
          <mxGeometry relative="1" as="geometry" />
        </mxCell>
        <mxCell id="QzwW5SckIYLt7hIqHZq7-47" value="True" style="edgeLabel;html=1;align=center;verticalAlign=middle;resizable=0;points=[];fontSize=17;" vertex="1" connectable="0" parent="QzwW5SckIYLt7hIqHZq7-42">
          <mxGeometry x="0.0952" relative="1" as="geometry">
            <mxPoint as="offset" />
          </mxGeometry>
        </mxCell>
        <mxCell id="QzwW5SckIYLt7hIqHZq7-44" value="" style="edgeStyle=orthogonalEdgeStyle;rounded=0;orthogonalLoop=1;jettySize=auto;html=1;" edge="1" parent="WIyWlLk6GJQsqaUBKTNV-1" source="QzwW5SckIYLt7hIqHZq7-39" target="QzwW5SckIYLt7hIqHZq7-43">
          <mxGeometry relative="1" as="geometry" />
        </mxCell>
        <mxCell id="QzwW5SckIYLt7hIqHZq7-46" value="FALSE" style="edgeLabel;html=1;align=center;verticalAlign=middle;resizable=0;points=[];fontSize=13;" vertex="1" connectable="0" parent="QzwW5SckIYLt7hIqHZq7-44">
          <mxGeometry x="-0.32" relative="1" as="geometry">
            <mxPoint as="offset" />
          </mxGeometry>
        </mxCell>
        <mxCell id="QzwW5SckIYLt7hIqHZq7-39" value="Is username and Pass match?" style="rhombus;whiteSpace=wrap;html=1;fontSize=17;fillColor=#fff2cc;strokeColor=none;gradientColor=#ffd966;fillStyle=hatch;" vertex="1" parent="WIyWlLk6GJQsqaUBKTNV-1">
          <mxGeometry x="990" y="310" width="140" height="160" as="geometry" />
        </mxCell>
        <mxCell id="QzwW5SckIYLt7hIqHZq7-52" style="edgeStyle=orthogonalEdgeStyle;rounded=0;orthogonalLoop=1;jettySize=auto;html=1;entryX=1;entryY=0.5;entryDx=0;entryDy=0;" edge="1" parent="WIyWlLk6GJQsqaUBKTNV-1" source="QzwW5SckIYLt7hIqHZq7-41" target="QzwW5SckIYLt7hIqHZq7-43">
          <mxGeometry relative="1" as="geometry">
            <Array as="points">
              <mxPoint x="1270" y="558" />
            </Array>
          </mxGeometry>
        </mxCell>
        <mxCell id="QzwW5SckIYLt7hIqHZq7-53" value="FALSE" style="edgeLabel;html=1;align=center;verticalAlign=middle;resizable=0;points=[];fontSize=16;" vertex="1" connectable="0" parent="QzwW5SckIYLt7hIqHZq7-52">
          <mxGeometry x="-0.1368" y="3" relative="1" as="geometry">
            <mxPoint x="1" as="offset" />
          </mxGeometry>
        </mxCell>
        <mxCell id="QzwW5SckIYLt7hIqHZq7-57" value="" style="edgeStyle=orthogonalEdgeStyle;rounded=0;orthogonalLoop=1;jettySize=auto;html=1;" edge="1" parent="WIyWlLk6GJQsqaUBKTNV-1" source="QzwW5SckIYLt7hIqHZq7-41" target="QzwW5SckIYLt7hIqHZq7-56">
          <mxGeometry relative="1" as="geometry" />
        </mxCell>
        <mxCell id="QzwW5SckIYLt7hIqHZq7-41" value="Is user Active?" style="rhombus;whiteSpace=wrap;html=1;fontSize=17;fillColor=#fff2cc;strokeColor=none;gradientColor=#ffd966;fillStyle=hatch;" vertex="1" parent="WIyWlLk6GJQsqaUBKTNV-1">
          <mxGeometry x="1200" y="310" width="140" height="160" as="geometry" />
        </mxCell>
        <mxCell id="QzwW5SckIYLt7hIqHZq7-50" value="" style="edgeStyle=orthogonalEdgeStyle;rounded=0;orthogonalLoop=1;jettySize=auto;html=1;" edge="1" parent="WIyWlLk6GJQsqaUBKTNV-1" source="QzwW5SckIYLt7hIqHZq7-43" target="QzwW5SckIYLt7hIqHZq7-49">
          <mxGeometry relative="1" as="geometry" />
        </mxCell>
        <mxCell id="QzwW5SckIYLt7hIqHZq7-43" value="Display&lt;div&gt;&lt;span style=&quot;background-color: transparent; color: light-dark(rgb(0, 0, 0), rgb(255, 255, 255));&quot;&gt;&amp;nbsp;error Message&lt;/span&gt;&lt;/div&gt;" style="whiteSpace=wrap;html=1;fontSize=15;fillColor=#e6d0de;strokeColor=none;gradientColor=#d5739d;" vertex="1" parent="WIyWlLk6GJQsqaUBKTNV-1">
          <mxGeometry x="1000" y="520" width="120" height="75" as="geometry" />
        </mxCell>
        <mxCell id="QzwW5SckIYLt7hIqHZq7-49" value="&lt;b&gt;1&lt;/b&gt;" style="ellipse;whiteSpace=wrap;html=1;fillColor=light-dark(#003A48,#EDEDED);strokeColor=none;gradientColor=light-dark(#67AB9F,#EDEDED);fillStyle=hatch;fontColor=#FFFFFF;fontSize=15;" vertex="1" parent="WIyWlLk6GJQsqaUBKTNV-1">
          <mxGeometry x="1035" y="640" width="50" height="50" as="geometry" />
        </mxCell>
        <mxCell id="QzwW5SckIYLt7hIqHZq7-55" value="BANK LOAN APPLICATION SYSTEM" style="text;html=1;align=center;verticalAlign=middle;resizable=0;points=[];autosize=1;strokeColor=none;fillColor=none;fontSize=32;fontStyle=1" vertex="1" parent="WIyWlLk6GJQsqaUBKTNV-1">
          <mxGeometry x="827" y="20" width="560" height="50" as="geometry" />
        </mxCell>
        <mxCell id="QzwW5SckIYLt7hIqHZq7-56" value="ROLES PAGE&lt;br&gt;(1)" style="shape=offPageConnector;whiteSpace=wrap;html=1;fillColor=#d5e8d4;gradientColor=#97d077;strokeColor=#82b366;fontStyle=1;fontSize=15;" vertex="1" parent="WIyWlLk6GJQsqaUBKTNV-1">
          <mxGeometry x="1410" y="348.75" width="70" height="82.5" as="geometry" />
        </mxCell>
        <mxCell id="QzwW5SckIYLt7hIqHZq7-101" value="" style="edgeStyle=orthogonalEdgeStyle;rounded=0;orthogonalLoop=1;jettySize=auto;html=1;" edge="1" parent="WIyWlLk6GJQsqaUBKTNV-1" source="QzwW5SckIYLt7hIqHZq7-58" target="QzwW5SckIYLt7hIqHZq7-100">
          <mxGeometry relative="1" as="geometry" />
        </mxCell>
        <mxCell id="QzwW5SckIYLt7hIqHZq7-58" value="1" style="shape=offPageConnector;whiteSpace=wrap;html=1;fillColor=#d5e8d4;gradientColor=#97d077;strokeColor=#82b366;fontStyle=1;fontSize=29;" vertex="1" parent="WIyWlLk6GJQsqaUBKTNV-1">
          <mxGeometry x="40" y="1330" width="70" height="82.5" as="geometry" />
        </mxCell>
        <mxCell id="QzwW5SckIYLt7hIqHZq7-62" value="&lt;font style=&quot;color: rgb(0, 0, 0);&quot;&gt;User Page&lt;/font&gt;" style="whiteSpace=wrap;html=1;fontSize=17;fillColor=#e6d0de;strokeColor=none;gradientColor=#d5739d;fillStyle=hatch;" vertex="1" parent="WIyWlLk6GJQsqaUBKTNV-1">
          <mxGeometry x="360" y="1341.25" width="120" height="60" as="geometry" />
        </mxCell>
        <mxCell id="QzwW5SckIYLt7hIqHZq7-68" value="" style="edgeStyle=orthogonalEdgeStyle;rounded=0;orthogonalLoop=1;jettySize=auto;html=1;exitX=1;exitY=0.5;exitDx=0;exitDy=0;" edge="1" parent="WIyWlLk6GJQsqaUBKTNV-1" source="QzwW5SckIYLt7hIqHZq7-62" target="QzwW5SckIYLt7hIqHZq7-66">
          <mxGeometry relative="1" as="geometry">
            <mxPoint x="538" y="1371.25" as="sourcePoint" />
          </mxGeometry>
        </mxCell>
        <mxCell id="QzwW5SckIYLt7hIqHZq7-77" value="YES" style="edgeLabel;html=1;align=center;verticalAlign=middle;resizable=0;points=[];fontSize=13;" vertex="1" connectable="0" parent="QzwW5SckIYLt7hIqHZq7-68">
          <mxGeometry x="-0.1111" relative="1" as="geometry">
            <mxPoint x="1" as="offset" />
          </mxGeometry>
        </mxCell>
        <mxCell id="QzwW5SckIYLt7hIqHZq7-71" value="" style="edgeStyle=orthogonalEdgeStyle;rounded=0;orthogonalLoop=1;jettySize=auto;html=1;" edge="1" parent="WIyWlLk6GJQsqaUBKTNV-1" source="QzwW5SckIYLt7hIqHZq7-66" target="QzwW5SckIYLt7hIqHZq7-69">
          <mxGeometry relative="1" as="geometry" />
        </mxCell>
        <mxCell id="QzwW5SckIYLt7hIqHZq7-79" value="" style="edgeStyle=orthogonalEdgeStyle;rounded=0;orthogonalLoop=1;jettySize=auto;html=1;" edge="1" parent="WIyWlLk6GJQsqaUBKTNV-1" source="QzwW5SckIYLt7hIqHZq7-66" target="QzwW5SckIYLt7hIqHZq7-78">
          <mxGeometry relative="1" as="geometry" />
        </mxCell>
        <mxCell id="QzwW5SckIYLt7hIqHZq7-66" value="&lt;font style=&quot;color: rgb(0, 0, 0);&quot;&gt;Get Users Data&lt;/font&gt;" style="whiteSpace=wrap;html=1;fontSize=17;fillColor=#e6d0de;strokeColor=none;gradientColor=#d5739d;fillStyle=hatch;" vertex="1" parent="WIyWlLk6GJQsqaUBKTNV-1">
          <mxGeometry x="610" y="1341.25" width="120" height="60" as="geometry" />
        </mxCell>
        <mxCell id="QzwW5SckIYLt7hIqHZq7-69" value="" style="shape=cylinder3;whiteSpace=wrap;html=1;boundedLbl=1;backgroundOutline=1;size=15;fillColor=#f5f5f5;gradientColor=#b3b3b3;strokeColor=#666666;" vertex="1" parent="WIyWlLk6GJQsqaUBKTNV-1">
          <mxGeometry x="640" y="1440" width="60" height="80" as="geometry" />
        </mxCell>
        <mxCell id="QzwW5SckIYLt7hIqHZq7-72" value="" style="edgeStyle=orthogonalEdgeStyle;rounded=0;orthogonalLoop=1;jettySize=auto;html=1;" edge="1" parent="WIyWlLk6GJQsqaUBKTNV-1" source="QzwW5SckIYLt7hIqHZq7-70" target="QzwW5SckIYLt7hIqHZq7-69">
          <mxGeometry relative="1" as="geometry" />
        </mxCell>
        <mxCell id="QzwW5SckIYLt7hIqHZq7-70" value="&lt;b&gt;DB&lt;/b&gt;&lt;div&gt;&lt;b&gt;2&lt;/b&gt;&lt;/div&gt;" style="ellipse;whiteSpace=wrap;html=1;fillColor=light-dark(#003A48,#EDEDED);strokeColor=none;gradientColor=light-dark(#67AB9F,#EDEDED);fillStyle=hatch;fontColor=#FFFFFF;fontSize=15;" vertex="1" parent="WIyWlLk6GJQsqaUBKTNV-1">
          <mxGeometry x="645" y="1570" width="50" height="50" as="geometry" />
        </mxCell>
        <mxCell id="QzwW5SckIYLt7hIqHZq7-76" value="" style="edgeStyle=orthogonalEdgeStyle;rounded=0;orthogonalLoop=1;jettySize=auto;html=1;" edge="1" parent="WIyWlLk6GJQsqaUBKTNV-1" source="QzwW5SckIYLt7hIqHZq7-75" target="QzwW5SckIYLt7hIqHZq7-62">
          <mxGeometry relative="1" as="geometry" />
        </mxCell>
        <mxCell id="QzwW5SckIYLt7hIqHZq7-75" value="2" style="ellipse;whiteSpace=wrap;html=1;fillColor=light-dark(#003A48,#EDEDED);strokeColor=none;gradientColor=light-dark(#67AB9F,#EDEDED);fillStyle=hatch;fontColor=#FFFFFF;fontSize=15;" vertex="1" parent="WIyWlLk6GJQsqaUBKTNV-1">
          <mxGeometry x="395" y="1455" width="50" height="50" as="geometry" />
        </mxCell>
        <mxCell id="QzwW5SckIYLt7hIqHZq7-81" value="" style="edgeStyle=orthogonalEdgeStyle;rounded=0;orthogonalLoop=1;jettySize=auto;html=1;" edge="1" parent="WIyWlLk6GJQsqaUBKTNV-1" source="QzwW5SckIYLt7hIqHZq7-78" target="QzwW5SckIYLt7hIqHZq7-80">
          <mxGeometry relative="1" as="geometry" />
        </mxCell>
        <mxCell id="QzwW5SckIYLt7hIqHZq7-85" value="NO" style="edgeLabel;html=1;align=center;verticalAlign=middle;resizable=0;points=[];fontSize=15;" vertex="1" connectable="0" parent="QzwW5SckIYLt7hIqHZq7-81">
          <mxGeometry x="-0.0303" y="-2" relative="1" as="geometry">
            <mxPoint as="offset" />
          </mxGeometry>
        </mxCell>
        <mxCell id="QzwW5SckIYLt7hIqHZq7-83" value="" style="edgeStyle=orthogonalEdgeStyle;rounded=0;orthogonalLoop=1;jettySize=auto;html=1;" edge="1" parent="WIyWlLk6GJQsqaUBKTNV-1" source="QzwW5SckIYLt7hIqHZq7-78" target="QzwW5SckIYLt7hIqHZq7-82">
          <mxGeometry relative="1" as="geometry" />
        </mxCell>
        <mxCell id="QzwW5SckIYLt7hIqHZq7-84" value="YES" style="edgeLabel;html=1;align=center;verticalAlign=middle;resizable=0;points=[];fontSize=15;" vertex="1" connectable="0" parent="QzwW5SckIYLt7hIqHZq7-83">
          <mxGeometry x="0.0025" y="-3" relative="1" as="geometry">
            <mxPoint as="offset" />
          </mxGeometry>
        </mxCell>
        <mxCell id="QzwW5SckIYLt7hIqHZq7-78" value="ADD USER?" style="rhombus;whiteSpace=wrap;html=1;fontSize=17;fillColor=#fff2cc;strokeColor=none;gradientColor=#ffd966;fillStyle=hatch;" vertex="1" parent="WIyWlLk6GJQsqaUBKTNV-1">
          <mxGeometry x="795" y="1320.63" width="85" height="101.25" as="geometry" />
        </mxCell>
        <mxCell id="QzwW5SckIYLt7hIqHZq7-114" value="" style="edgeStyle=orthogonalEdgeStyle;rounded=0;orthogonalLoop=1;jettySize=auto;html=1;" edge="1" parent="WIyWlLk6GJQsqaUBKTNV-1" source="QzwW5SckIYLt7hIqHZq7-80" target="QzwW5SckIYLt7hIqHZq7-113">
          <mxGeometry relative="1" as="geometry" />
        </mxCell>
        <mxCell id="QzwW5SckIYLt7hIqHZq7-116" value="YES" style="edgeLabel;html=1;align=center;verticalAlign=middle;resizable=0;points=[];fontSize=15;" vertex="1" connectable="0" parent="QzwW5SckIYLt7hIqHZq7-114">
          <mxGeometry x="-0.3023" y="5" relative="1" as="geometry">
            <mxPoint as="offset" />
          </mxGeometry>
        </mxCell>
        <mxCell id="QzwW5SckIYLt7hIqHZq7-141" value="" style="edgeStyle=orthogonalEdgeStyle;rounded=0;orthogonalLoop=1;jettySize=auto;html=1;" edge="1" parent="WIyWlLk6GJQsqaUBKTNV-1" source="QzwW5SckIYLt7hIqHZq7-80" target="QzwW5SckIYLt7hIqHZq7-140">
          <mxGeometry relative="1" as="geometry" />
        </mxCell>
        <mxCell id="QzwW5SckIYLt7hIqHZq7-142" value="NO" style="edgeLabel;html=1;align=center;verticalAlign=middle;resizable=0;points=[];fontSize=15;" vertex="1" connectable="0" parent="QzwW5SckIYLt7hIqHZq7-141">
          <mxGeometry x="-0.0476" y="2" relative="1" as="geometry">
            <mxPoint as="offset" />
          </mxGeometry>
        </mxCell>
        <mxCell id="QzwW5SckIYLt7hIqHZq7-80" value="EDIT USER?" style="rhombus;whiteSpace=wrap;html=1;fontSize=17;fillColor=#fff2cc;strokeColor=none;gradientColor=#ffd966;fillStyle=hatch;" vertex="1" parent="WIyWlLk6GJQsqaUBKTNV-1">
          <mxGeometry x="1250" y="1321.88" width="90" height="100" as="geometry" />
        </mxCell>
        <mxCell id="QzwW5SckIYLt7hIqHZq7-106" value="" style="edgeStyle=orthogonalEdgeStyle;rounded=0;orthogonalLoop=1;jettySize=auto;html=1;" edge="1" parent="WIyWlLk6GJQsqaUBKTNV-1" source="QzwW5SckIYLt7hIqHZq7-82" target="QzwW5SckIYLt7hIqHZq7-104">
          <mxGeometry relative="1" as="geometry" />
        </mxCell>
        <mxCell id="QzwW5SckIYLt7hIqHZq7-82" value="Input Details" style="shape=parallelogram;perimeter=parallelogramPerimeter;whiteSpace=wrap;html=1;fixedSize=1;fontSize=15;fillColor=#f8cecc;strokeColor=none;gradientColor=#ea6b66;" vertex="1" parent="WIyWlLk6GJQsqaUBKTNV-1">
          <mxGeometry x="777.5" y="1470" width="120" height="60" as="geometry" />
        </mxCell>
        <mxCell id="QzwW5SckIYLt7hIqHZq7-89" value="" style="edgeStyle=orthogonalEdgeStyle;rounded=0;orthogonalLoop=1;jettySize=auto;html=1;" edge="1" parent="WIyWlLk6GJQsqaUBKTNV-1" source="QzwW5SckIYLt7hIqHZq7-86" target="QzwW5SckIYLt7hIqHZq7-88">
          <mxGeometry relative="1" as="geometry" />
        </mxCell>
        <mxCell id="QzwW5SckIYLt7hIqHZq7-91" value="NO" style="edgeLabel;html=1;align=center;verticalAlign=middle;resizable=0;points=[];fontSize=14;" vertex="1" connectable="0" parent="QzwW5SckIYLt7hIqHZq7-89">
          <mxGeometry x="-0.4581" relative="1" as="geometry">
            <mxPoint as="offset" />
          </mxGeometry>
        </mxCell>
        <mxCell id="QzwW5SckIYLt7hIqHZq7-94" value="" style="edgeStyle=orthogonalEdgeStyle;rounded=0;orthogonalLoop=1;jettySize=auto;html=1;" edge="1" parent="WIyWlLk6GJQsqaUBKTNV-1" source="QzwW5SckIYLt7hIqHZq7-86" target="QzwW5SckIYLt7hIqHZq7-92">
          <mxGeometry relative="1" as="geometry" />
        </mxCell>
        <mxCell id="QzwW5SckIYLt7hIqHZq7-98" value="YES" style="edgeLabel;html=1;align=center;verticalAlign=middle;resizable=0;points=[];fontSize=13;" vertex="1" connectable="0" parent="QzwW5SckIYLt7hIqHZq7-94">
          <mxGeometry x="-0.2714" y="3" relative="1" as="geometry">
            <mxPoint as="offset" />
          </mxGeometry>
        </mxCell>
        <mxCell id="QzwW5SckIYLt7hIqHZq7-86" value="Is Details Valid?" style="rhombus;whiteSpace=wrap;html=1;fontSize=15;fillColor=#fff2cc;strokeColor=none;gradientColor=#ffd966;" vertex="1" parent="WIyWlLk6GJQsqaUBKTNV-1">
          <mxGeometry x="777.5" y="1700" width="120" height="130" as="geometry" />
        </mxCell>
        <mxCell id="QzwW5SckIYLt7hIqHZq7-90" style="edgeStyle=orthogonalEdgeStyle;rounded=0;orthogonalLoop=1;jettySize=auto;html=1;entryX=1;entryY=0.5;entryDx=0;entryDy=0;" edge="1" parent="WIyWlLk6GJQsqaUBKTNV-1" source="QzwW5SckIYLt7hIqHZq7-88" target="QzwW5SckIYLt7hIqHZq7-82">
          <mxGeometry relative="1" as="geometry">
            <Array as="points">
              <mxPoint x="1002" y="1500" />
            </Array>
          </mxGeometry>
        </mxCell>
        <mxCell id="QzwW5SckIYLt7hIqHZq7-88" value="Display&lt;div&gt;&lt;span style=&quot;background-color: transparent; color: light-dark(rgb(0, 0, 0), rgb(255, 255, 255));&quot;&gt;&amp;nbsp;error Message&lt;/span&gt;&lt;/div&gt;" style="whiteSpace=wrap;html=1;fontSize=15;fillColor=#e6d0de;strokeColor=none;gradientColor=#d5739d;" vertex="1" parent="WIyWlLk6GJQsqaUBKTNV-1">
          <mxGeometry x="942.5" y="1727.5" width="120" height="75" as="geometry" />
        </mxCell>
        <mxCell id="QzwW5SckIYLt7hIqHZq7-173" style="edgeStyle=orthogonalEdgeStyle;rounded=0;orthogonalLoop=1;jettySize=auto;html=1;entryX=0;entryY=0.5;entryDx=0;entryDy=0;" edge="1" parent="WIyWlLk6GJQsqaUBKTNV-1" source="QzwW5SckIYLt7hIqHZq7-92" target="QzwW5SckIYLt7hIqHZq7-93">
          <mxGeometry relative="1" as="geometry">
            <Array as="points">
              <mxPoint x="838" y="2275" />
            </Array>
          </mxGeometry>
        </mxCell>
        <mxCell id="QzwW5SckIYLt7hIqHZq7-92" value="SAVES DATA" style="whiteSpace=wrap;html=1;fontSize=15;fillColor=#e6d0de;strokeColor=none;gradientColor=#d5739d;" vertex="1" parent="WIyWlLk6GJQsqaUBKTNV-1">
          <mxGeometry x="777.5" y="1870" width="120" height="75" as="geometry" />
        </mxCell>
        <mxCell id="QzwW5SckIYLt7hIqHZq7-109" value="" style="edgeStyle=orthogonalEdgeStyle;rounded=0;orthogonalLoop=1;jettySize=auto;html=1;" edge="1" parent="WIyWlLk6GJQsqaUBKTNV-1" source="QzwW5SckIYLt7hIqHZq7-93" target="QzwW5SckIYLt7hIqHZq7-108">
          <mxGeometry relative="1" as="geometry" />
        </mxCell>
        <mxCell id="QzwW5SckIYLt7hIqHZq7-93" value="&lt;b&gt;DB&lt;/b&gt;&lt;div&gt;&lt;b&gt;2&lt;/b&gt;&lt;/div&gt;" style="ellipse;whiteSpace=wrap;html=1;fillColor=light-dark(#003A48,#EDEDED);strokeColor=none;gradientColor=light-dark(#67AB9F,#EDEDED);fillStyle=hatch;fontColor=#FFFFFF;fontSize=15;" vertex="1" parent="WIyWlLk6GJQsqaUBKTNV-1">
          <mxGeometry x="1270" y="2250" width="50" height="50" as="geometry" />
        </mxCell>
        <mxCell id="QzwW5SckIYLt7hIqHZq7-96" value="&lt;b&gt;2&lt;/b&gt;" style="ellipse;whiteSpace=wrap;html=1;fillColor=light-dark(#003A48,#EDEDED);strokeColor=none;gradientColor=light-dark(#67AB9F,#EDEDED);fillStyle=hatch;fontColor=#FFFFFF;fontSize=15;" vertex="1" parent="WIyWlLk6GJQsqaUBKTNV-1">
          <mxGeometry x="1270" y="2440" width="50" height="50" as="geometry" />
        </mxCell>
        <mxCell id="QzwW5SckIYLt7hIqHZq7-102" value="" style="edgeStyle=orthogonalEdgeStyle;rounded=0;orthogonalLoop=1;jettySize=auto;html=1;" edge="1" parent="WIyWlLk6GJQsqaUBKTNV-1" source="QzwW5SckIYLt7hIqHZq7-100" target="QzwW5SckIYLt7hIqHZq7-62">
          <mxGeometry relative="1" as="geometry" />
        </mxCell>
        <mxCell id="QzwW5SckIYLt7hIqHZq7-103" value="YES" style="edgeLabel;html=1;align=center;verticalAlign=middle;resizable=0;points=[];fontSize=14;" vertex="1" connectable="0" parent="QzwW5SckIYLt7hIqHZq7-102">
          <mxGeometry x="-0.2139" y="-1" relative="1" as="geometry">
            <mxPoint as="offset" />
          </mxGeometry>
        </mxCell>
        <mxCell id="QzwW5SckIYLt7hIqHZq7-264" style="edgeStyle=orthogonalEdgeStyle;rounded=0;orthogonalLoop=1;jettySize=auto;html=1;" edge="1" parent="WIyWlLk6GJQsqaUBKTNV-1" source="QzwW5SckIYLt7hIqHZq7-100" target="QzwW5SckIYLt7hIqHZq7-190">
          <mxGeometry relative="1" as="geometry" />
        </mxCell>
        <mxCell id="QzwW5SckIYLt7hIqHZq7-100" value="USER &lt;br&gt;?" style="rhombus;whiteSpace=wrap;html=1;fontSize=17;fillColor=#fff2cc;strokeColor=none;gradientColor=#ffd966;fillStyle=hatch;" vertex="1" parent="WIyWlLk6GJQsqaUBKTNV-1">
          <mxGeometry x="140" y="1330.9299999999998" width="80" height="80.64" as="geometry" />
        </mxCell>
        <mxCell id="QzwW5SckIYLt7hIqHZq7-107" value="" style="edgeStyle=orthogonalEdgeStyle;rounded=0;orthogonalLoop=1;jettySize=auto;html=1;" edge="1" parent="WIyWlLk6GJQsqaUBKTNV-1" source="QzwW5SckIYLt7hIqHZq7-104" target="QzwW5SckIYLt7hIqHZq7-86">
          <mxGeometry relative="1" as="geometry" />
        </mxCell>
        <mxCell id="QzwW5SckIYLt7hIqHZq7-104" value="Click Add Button" style="whiteSpace=wrap;html=1;fontSize=15;fillColor=#e6d0de;strokeColor=none;gradientColor=#d5739d;" vertex="1" parent="WIyWlLk6GJQsqaUBKTNV-1">
          <mxGeometry x="777.5" y="1580" width="120" height="75" as="geometry" />
        </mxCell>
        <mxCell id="QzwW5SckIYLt7hIqHZq7-110" value="" style="edgeStyle=orthogonalEdgeStyle;rounded=0;orthogonalLoop=1;jettySize=auto;html=1;" edge="1" parent="WIyWlLk6GJQsqaUBKTNV-1" source="QzwW5SckIYLt7hIqHZq7-108" target="QzwW5SckIYLt7hIqHZq7-96">
          <mxGeometry relative="1" as="geometry" />
        </mxCell>
        <mxCell id="QzwW5SckIYLt7hIqHZq7-108" value="SAVE SUCCESFULLY" style="whiteSpace=wrap;html=1;fontSize=15;fillColor=#e6d0de;strokeColor=none;gradientColor=#d5739d;" vertex="1" parent="WIyWlLk6GJQsqaUBKTNV-1">
          <mxGeometry x="1235" y="2330" width="120" height="75" as="geometry" />
        </mxCell>
        <mxCell id="QzwW5SckIYLt7hIqHZq7-118" value="" style="edgeStyle=orthogonalEdgeStyle;rounded=0;orthogonalLoop=1;jettySize=auto;html=1;" edge="1" parent="WIyWlLk6GJQsqaUBKTNV-1" source="QzwW5SckIYLt7hIqHZq7-111" target="QzwW5SckIYLt7hIqHZq7-117">
          <mxGeometry relative="1" as="geometry" />
        </mxCell>
        <mxCell id="QzwW5SckIYLt7hIqHZq7-111" value="Click Edit Button" style="whiteSpace=wrap;html=1;fontSize=17;fillColor=#e6d0de;strokeColor=none;gradientColor=#d5739d;fillStyle=hatch;" vertex="1" parent="WIyWlLk6GJQsqaUBKTNV-1">
          <mxGeometry x="1235" y="1580" width="120" height="60" as="geometry" />
        </mxCell>
        <mxCell id="QzwW5SckIYLt7hIqHZq7-115" value="" style="edgeStyle=orthogonalEdgeStyle;rounded=0;orthogonalLoop=1;jettySize=auto;html=1;" edge="1" parent="WIyWlLk6GJQsqaUBKTNV-1" source="QzwW5SckIYLt7hIqHZq7-113" target="QzwW5SckIYLt7hIqHZq7-111">
          <mxGeometry relative="1" as="geometry" />
        </mxCell>
        <mxCell id="QzwW5SckIYLt7hIqHZq7-113" value="Choose DATA" style="shape=parallelogram;perimeter=parallelogramPerimeter;whiteSpace=wrap;html=1;fixedSize=1;fontSize=15;fillColor=#f8cecc;strokeColor=none;gradientColor=#ea6b66;" vertex="1" parent="WIyWlLk6GJQsqaUBKTNV-1">
          <mxGeometry x="1235" y="1470" width="120" height="60" as="geometry" />
        </mxCell>
        <mxCell id="QzwW5SckIYLt7hIqHZq7-120" value="YES" style="edgeStyle=orthogonalEdgeStyle;rounded=0;orthogonalLoop=1;jettySize=auto;html=1;fontSize=14;" edge="1" parent="WIyWlLk6GJQsqaUBKTNV-1" source="QzwW5SckIYLt7hIqHZq7-117" target="QzwW5SckIYLt7hIqHZq7-119">
          <mxGeometry relative="1" as="geometry" />
        </mxCell>
        <mxCell id="QzwW5SckIYLt7hIqHZq7-123" value="" style="edgeStyle=orthogonalEdgeStyle;rounded=0;orthogonalLoop=1;jettySize=auto;html=1;" edge="1" parent="WIyWlLk6GJQsqaUBKTNV-1" source="QzwW5SckIYLt7hIqHZq7-117" target="QzwW5SckIYLt7hIqHZq7-122">
          <mxGeometry relative="1" as="geometry" />
        </mxCell>
        <mxCell id="QzwW5SckIYLt7hIqHZq7-124" value="NO" style="edgeLabel;html=1;align=center;verticalAlign=middle;resizable=0;points=[];fontSize=15;" vertex="1" connectable="0" parent="QzwW5SckIYLt7hIqHZq7-123">
          <mxGeometry x="-0.2139" y="1" relative="1" as="geometry">
            <mxPoint as="offset" />
          </mxGeometry>
        </mxCell>
        <mxCell id="QzwW5SckIYLt7hIqHZq7-117" value="Selected Data Empty?" style="rhombus;whiteSpace=wrap;html=1;fontSize=15;fillColor=#fff2cc;strokeColor=none;gradientColor=#ffd966;" vertex="1" parent="WIyWlLk6GJQsqaUBKTNV-1">
          <mxGeometry x="1235" y="1700" width="120" height="130" as="geometry" />
        </mxCell>
        <mxCell id="QzwW5SckIYLt7hIqHZq7-121" style="edgeStyle=orthogonalEdgeStyle;rounded=0;orthogonalLoop=1;jettySize=auto;html=1;entryX=1;entryY=0.5;entryDx=0;entryDy=0;" edge="1" parent="WIyWlLk6GJQsqaUBKTNV-1" source="QzwW5SckIYLt7hIqHZq7-119" target="QzwW5SckIYLt7hIqHZq7-111">
          <mxGeometry relative="1" as="geometry">
            <Array as="points">
              <mxPoint x="1480" y="1610" />
            </Array>
          </mxGeometry>
        </mxCell>
        <mxCell id="QzwW5SckIYLt7hIqHZq7-119" value="Display&lt;div&gt;&lt;span style=&quot;background-color: transparent; color: light-dark(rgb(0, 0, 0), rgb(255, 255, 255));&quot;&gt;&amp;nbsp;error Message&lt;/span&gt;&lt;/div&gt;" style="whiteSpace=wrap;html=1;fontSize=15;fillColor=#e6d0de;strokeColor=none;gradientColor=#d5739d;" vertex="1" parent="WIyWlLk6GJQsqaUBKTNV-1">
          <mxGeometry x="1420" y="1727.5" width="120" height="75" as="geometry" />
        </mxCell>
        <mxCell id="QzwW5SckIYLt7hIqHZq7-126" value="" style="edgeStyle=orthogonalEdgeStyle;rounded=0;orthogonalLoop=1;jettySize=auto;html=1;" edge="1" parent="WIyWlLk6GJQsqaUBKTNV-1" source="QzwW5SckIYLt7hIqHZq7-122" target="QzwW5SckIYLt7hIqHZq7-125">
          <mxGeometry relative="1" as="geometry" />
        </mxCell>
        <mxCell id="QzwW5SckIYLt7hIqHZq7-122" value="EDIT Details" style="shape=parallelogram;perimeter=parallelogramPerimeter;whiteSpace=wrap;html=1;fixedSize=1;fontSize=15;fillColor=#f8cecc;strokeColor=none;gradientColor=#ea6b66;" vertex="1" parent="WIyWlLk6GJQsqaUBKTNV-1">
          <mxGeometry x="1235" y="1885" width="120" height="60" as="geometry" />
        </mxCell>
        <mxCell id="QzwW5SckIYLt7hIqHZq7-128" value="" style="edgeStyle=orthogonalEdgeStyle;rounded=0;orthogonalLoop=1;jettySize=auto;html=1;" edge="1" parent="WIyWlLk6GJQsqaUBKTNV-1" source="QzwW5SckIYLt7hIqHZq7-125" target="QzwW5SckIYLt7hIqHZq7-127">
          <mxGeometry relative="1" as="geometry" />
        </mxCell>
        <mxCell id="QzwW5SckIYLt7hIqHZq7-129" value="NO" style="edgeLabel;html=1;align=center;verticalAlign=middle;resizable=0;points=[];fontSize=14;" vertex="1" connectable="0" parent="QzwW5SckIYLt7hIqHZq7-128">
          <mxGeometry x="-0.1136" y="-1" relative="1" as="geometry">
            <mxPoint as="offset" />
          </mxGeometry>
        </mxCell>
        <mxCell id="QzwW5SckIYLt7hIqHZq7-172" value="" style="edgeStyle=orthogonalEdgeStyle;rounded=0;orthogonalLoop=1;jettySize=auto;html=1;entryX=0.5;entryY=0;entryDx=0;entryDy=0;" edge="1" parent="WIyWlLk6GJQsqaUBKTNV-1" source="QzwW5SckIYLt7hIqHZq7-125" target="QzwW5SckIYLt7hIqHZq7-182">
          <mxGeometry relative="1" as="geometry">
            <mxPoint x="1330" y="2150" as="targetPoint" />
            <Array as="points" />
          </mxGeometry>
        </mxCell>
        <mxCell id="QzwW5SckIYLt7hIqHZq7-175" value="YES" style="edgeLabel;html=1;align=center;verticalAlign=middle;resizable=0;points=[];fontSize=15;" vertex="1" connectable="0" parent="QzwW5SckIYLt7hIqHZq7-172">
          <mxGeometry x="-0.4171" y="1" relative="1" as="geometry">
            <mxPoint x="-1" y="-5" as="offset" />
          </mxGeometry>
        </mxCell>
        <mxCell id="QzwW5SckIYLt7hIqHZq7-125" value="Is Details Valid?" style="rhombus;whiteSpace=wrap;html=1;fontSize=15;fillColor=#fff2cc;strokeColor=none;gradientColor=#ffd966;" vertex="1" parent="WIyWlLk6GJQsqaUBKTNV-1">
          <mxGeometry x="1235" y="1990" width="120" height="130" as="geometry" />
        </mxCell>
        <mxCell id="QzwW5SckIYLt7hIqHZq7-130" style="edgeStyle=orthogonalEdgeStyle;rounded=0;orthogonalLoop=1;jettySize=auto;html=1;entryX=1;entryY=0.5;entryDx=0;entryDy=0;" edge="1" parent="WIyWlLk6GJQsqaUBKTNV-1" source="QzwW5SckIYLt7hIqHZq7-127" target="QzwW5SckIYLt7hIqHZq7-122">
          <mxGeometry relative="1" as="geometry">
            <Array as="points">
              <mxPoint x="1480" y="1915" />
            </Array>
          </mxGeometry>
        </mxCell>
        <mxCell id="QzwW5SckIYLt7hIqHZq7-127" value="Display&lt;div&gt;&lt;span style=&quot;background-color: transparent; color: light-dark(rgb(0, 0, 0), rgb(255, 255, 255));&quot;&gt;&amp;nbsp;error Message&lt;/span&gt;&lt;/div&gt;" style="whiteSpace=wrap;html=1;fontSize=15;fillColor=#e6d0de;strokeColor=none;gradientColor=#d5739d;" vertex="1" parent="WIyWlLk6GJQsqaUBKTNV-1">
          <mxGeometry x="1420" y="2017.5" width="120" height="75" as="geometry" />
        </mxCell>
        <mxCell id="QzwW5SckIYLt7hIqHZq7-186" style="edgeStyle=orthogonalEdgeStyle;rounded=0;orthogonalLoop=1;jettySize=auto;html=1;entryX=0;entryY=0.5;entryDx=0;entryDy=0;" edge="1" parent="WIyWlLk6GJQsqaUBKTNV-1" source="QzwW5SckIYLt7hIqHZq7-140" target="QzwW5SckIYLt7hIqHZq7-187">
          <mxGeometry relative="1" as="geometry">
            <mxPoint x="1970" y="1370.94" as="targetPoint" />
          </mxGeometry>
        </mxCell>
        <mxCell id="QzwW5SckIYLt7hIqHZq7-140" value="DELETE&lt;br&gt;USER?" style="rhombus;whiteSpace=wrap;html=1;fontSize=17;fillColor=#fff2cc;strokeColor=none;gradientColor=#ffd966;fillStyle=hatch;" vertex="1" parent="WIyWlLk6GJQsqaUBKTNV-1">
          <mxGeometry x="1745" y="1320" width="110" height="101.88" as="geometry" />
        </mxCell>
        <mxCell id="QzwW5SckIYLt7hIqHZq7-145" value="" style="edgeStyle=orthogonalEdgeStyle;rounded=0;orthogonalLoop=1;jettySize=auto;html=1;exitX=0.5;exitY=1;exitDx=0;exitDy=0;entryX=0.5;entryY=0;entryDx=0;entryDy=0;" edge="1" parent="WIyWlLk6GJQsqaUBKTNV-1" target="QzwW5SckIYLt7hIqHZq7-158" source="QzwW5SckIYLt7hIqHZq7-140">
          <mxGeometry relative="1" as="geometry">
            <mxPoint x="1800" y="1422" as="sourcePoint" />
            <mxPoint x="1800" y="1470" as="targetPoint" />
          </mxGeometry>
        </mxCell>
        <mxCell id="QzwW5SckIYLt7hIqHZq7-146" value="YES" style="edgeLabel;html=1;align=center;verticalAlign=middle;resizable=0;points=[];fontSize=15;" vertex="1" connectable="0" parent="QzwW5SckIYLt7hIqHZq7-145">
          <mxGeometry x="-0.3023" y="5" relative="1" as="geometry">
            <mxPoint as="offset" />
          </mxGeometry>
        </mxCell>
        <mxCell id="QzwW5SckIYLt7hIqHZq7-147" value="" style="edgeStyle=orthogonalEdgeStyle;rounded=0;orthogonalLoop=1;jettySize=auto;html=1;exitX=0.5;exitY=1;exitDx=0;exitDy=0;entryX=0.5;entryY=0;entryDx=0;entryDy=0;" edge="1" parent="WIyWlLk6GJQsqaUBKTNV-1" source="QzwW5SckIYLt7hIqHZq7-158" target="QzwW5SckIYLt7hIqHZq7-160">
          <mxGeometry relative="1" as="geometry">
            <mxPoint x="1800" y="1640" as="sourcePoint" />
            <mxPoint x="1800" y="1630" as="targetPoint" />
          </mxGeometry>
        </mxCell>
        <mxCell id="QzwW5SckIYLt7hIqHZq7-151" value="YES" style="edgeStyle=orthogonalEdgeStyle;rounded=0;orthogonalLoop=1;jettySize=auto;html=1;fontSize=14;" edge="1" parent="WIyWlLk6GJQsqaUBKTNV-1" source="QzwW5SckIYLt7hIqHZq7-154" target="QzwW5SckIYLt7hIqHZq7-162">
          <mxGeometry relative="1" as="geometry">
            <mxPoint x="1940" y="1745" as="targetPoint" />
          </mxGeometry>
        </mxCell>
        <mxCell id="QzwW5SckIYLt7hIqHZq7-152" value="" style="edgeStyle=orthogonalEdgeStyle;rounded=0;orthogonalLoop=1;jettySize=auto;html=1;entryX=0.5;entryY=0;entryDx=0;entryDy=0;" edge="1" parent="WIyWlLk6GJQsqaUBKTNV-1" source="QzwW5SckIYLt7hIqHZq7-154" target="QzwW5SckIYLt7hIqHZq7-165">
          <mxGeometry relative="1" as="geometry">
            <mxPoint x="1800" y="1860" as="targetPoint" />
          </mxGeometry>
        </mxCell>
        <mxCell id="QzwW5SckIYLt7hIqHZq7-153" value="NO" style="edgeLabel;html=1;align=center;verticalAlign=middle;resizable=0;points=[];fontSize=15;" vertex="1" connectable="0" parent="QzwW5SckIYLt7hIqHZq7-152">
          <mxGeometry x="-0.2139" y="1" relative="1" as="geometry">
            <mxPoint as="offset" />
          </mxGeometry>
        </mxCell>
        <mxCell id="QzwW5SckIYLt7hIqHZq7-154" value="Selected Data Empty?" style="rhombus;whiteSpace=wrap;html=1;fontSize=15;fillColor=#fff2cc;strokeColor=none;gradientColor=#ffd966;" vertex="1" parent="WIyWlLk6GJQsqaUBKTNV-1">
          <mxGeometry x="1740" y="1680" width="120" height="130" as="geometry" />
        </mxCell>
        <mxCell id="QzwW5SckIYLt7hIqHZq7-158" value="Display User Data" style="whiteSpace=wrap;html=1;fontSize=15;fillColor=#e6d0de;strokeColor=none;gradientColor=#d5739d;" vertex="1" parent="WIyWlLk6GJQsqaUBKTNV-1">
          <mxGeometry x="1740" y="1470" width="120" height="75" as="geometry" />
        </mxCell>
        <mxCell id="QzwW5SckIYLt7hIqHZq7-161" value="" style="edgeStyle=orthogonalEdgeStyle;rounded=0;orthogonalLoop=1;jettySize=auto;html=1;" edge="1" parent="WIyWlLk6GJQsqaUBKTNV-1" source="QzwW5SckIYLt7hIqHZq7-160" target="QzwW5SckIYLt7hIqHZq7-154">
          <mxGeometry relative="1" as="geometry" />
        </mxCell>
        <mxCell id="QzwW5SckIYLt7hIqHZq7-160" value="Choose DATA" style="shape=parallelogram;perimeter=parallelogramPerimeter;whiteSpace=wrap;html=1;fixedSize=1;fontSize=15;fillColor=#f8cecc;strokeColor=none;gradientColor=#ea6b66;" vertex="1" parent="WIyWlLk6GJQsqaUBKTNV-1">
          <mxGeometry x="1740" y="1587.5" width="120" height="62.5" as="geometry" />
        </mxCell>
        <mxCell id="QzwW5SckIYLt7hIqHZq7-164" style="edgeStyle=orthogonalEdgeStyle;rounded=0;orthogonalLoop=1;jettySize=auto;html=1;entryX=1;entryY=0.5;entryDx=0;entryDy=0;" edge="1" parent="WIyWlLk6GJQsqaUBKTNV-1" source="QzwW5SckIYLt7hIqHZq7-162" target="QzwW5SckIYLt7hIqHZq7-160">
          <mxGeometry relative="1" as="geometry">
            <Array as="points">
              <mxPoint x="2000" y="1619" />
            </Array>
          </mxGeometry>
        </mxCell>
        <mxCell id="QzwW5SckIYLt7hIqHZq7-162" value="Display&lt;div&gt;&lt;span style=&quot;background-color: transparent; color: light-dark(rgb(0, 0, 0), rgb(255, 255, 255));&quot;&gt;&amp;nbsp;error Message&lt;/span&gt;&lt;/div&gt;" style="whiteSpace=wrap;html=1;fontSize=15;fillColor=#e6d0de;strokeColor=none;gradientColor=#d5739d;" vertex="1" parent="WIyWlLk6GJQsqaUBKTNV-1">
          <mxGeometry x="1940" y="1707.5" width="120" height="75" as="geometry" />
        </mxCell>
        <mxCell id="QzwW5SckIYLt7hIqHZq7-168" style="edgeStyle=orthogonalEdgeStyle;rounded=0;orthogonalLoop=1;jettySize=auto;html=1;entryX=0;entryY=0.5;entryDx=0;entryDy=0;" edge="1" parent="WIyWlLk6GJQsqaUBKTNV-1" source="QzwW5SckIYLt7hIqHZq7-165" target="QzwW5SckIYLt7hIqHZq7-160">
          <mxGeometry relative="1" as="geometry">
            <Array as="points">
              <mxPoint x="1720" y="1920" />
              <mxPoint x="1720" y="1620" />
              <mxPoint x="1750" y="1620" />
            </Array>
          </mxGeometry>
        </mxCell>
        <mxCell id="QzwW5SckIYLt7hIqHZq7-169" value="NO" style="edgeLabel;html=1;align=center;verticalAlign=middle;resizable=0;points=[];fontSize=15;" vertex="1" connectable="0" parent="QzwW5SckIYLt7hIqHZq7-168">
          <mxGeometry x="0.0152" y="3" relative="1" as="geometry">
            <mxPoint as="offset" />
          </mxGeometry>
        </mxCell>
        <mxCell id="QzwW5SckIYLt7hIqHZq7-174" style="edgeStyle=orthogonalEdgeStyle;rounded=0;orthogonalLoop=1;jettySize=auto;html=1;entryX=1;entryY=0.5;entryDx=0;entryDy=0;exitX=0.5;exitY=1;exitDx=0;exitDy=0;" edge="1" parent="WIyWlLk6GJQsqaUBKTNV-1" source="QzwW5SckIYLt7hIqHZq7-177" target="QzwW5SckIYLt7hIqHZq7-93">
          <mxGeometry relative="1" as="geometry">
            <mxPoint x="1800" y="2110" as="sourcePoint" />
            <Array as="points">
              <mxPoint x="1800" y="2070" />
              <mxPoint x="1800" y="2195" />
            </Array>
          </mxGeometry>
        </mxCell>
        <mxCell id="QzwW5SckIYLt7hIqHZq7-179" value="" style="edgeStyle=orthogonalEdgeStyle;rounded=0;orthogonalLoop=1;jettySize=auto;html=1;" edge="1" parent="WIyWlLk6GJQsqaUBKTNV-1" source="QzwW5SckIYLt7hIqHZq7-165" target="QzwW5SckIYLt7hIqHZq7-177">
          <mxGeometry relative="1" as="geometry" />
        </mxCell>
        <mxCell id="QzwW5SckIYLt7hIqHZq7-181" value="YES" style="edgeLabel;html=1;align=center;verticalAlign=middle;resizable=0;points=[];fontSize=15;" vertex="1" connectable="0" parent="QzwW5SckIYLt7hIqHZq7-179">
          <mxGeometry x="-0.1065" y="-1" relative="1" as="geometry">
            <mxPoint as="offset" />
          </mxGeometry>
        </mxCell>
        <mxCell id="QzwW5SckIYLt7hIqHZq7-165" value="Are U sure to delete this data&lt;div&gt;?&lt;/div&gt;" style="rhombus;whiteSpace=wrap;html=1;fontSize=15;fillColor=#fff2cc;strokeColor=none;gradientColor=#ffd966;" vertex="1" parent="WIyWlLk6GJQsqaUBKTNV-1">
          <mxGeometry x="1740" y="1860" width="120" height="130" as="geometry" />
        </mxCell>
        <mxCell id="QzwW5SckIYLt7hIqHZq7-177" value="SAVES DATA" style="whiteSpace=wrap;html=1;fontSize=15;fillColor=#e6d0de;strokeColor=none;gradientColor=#d5739d;" vertex="1" parent="WIyWlLk6GJQsqaUBKTNV-1">
          <mxGeometry x="1740" y="2045" width="120" height="75" as="geometry" />
        </mxCell>
        <mxCell id="QzwW5SckIYLt7hIqHZq7-185" style="edgeStyle=orthogonalEdgeStyle;rounded=0;orthogonalLoop=1;jettySize=auto;html=1;entryX=0.5;entryY=0;entryDx=0;entryDy=0;" edge="1" parent="WIyWlLk6GJQsqaUBKTNV-1" source="QzwW5SckIYLt7hIqHZq7-182" target="QzwW5SckIYLt7hIqHZq7-93">
          <mxGeometry relative="1" as="geometry" />
        </mxCell>
        <mxCell id="QzwW5SckIYLt7hIqHZq7-182" value="SAVES DATA" style="whiteSpace=wrap;html=1;fontSize=15;fillColor=#e6d0de;strokeColor=none;gradientColor=#d5739d;" vertex="1" parent="WIyWlLk6GJQsqaUBKTNV-1">
          <mxGeometry x="1235" y="2150" width="120" height="75" as="geometry" />
        </mxCell>
        <mxCell id="QzwW5SckIYLt7hIqHZq7-187" value="&lt;b&gt;2&lt;/b&gt;" style="ellipse;whiteSpace=wrap;html=1;fillColor=light-dark(#003A48,#EDEDED);strokeColor=none;gradientColor=light-dark(#67AB9F,#EDEDED);fillStyle=hatch;fontColor=#FFFFFF;fontSize=15;" vertex="1" parent="WIyWlLk6GJQsqaUBKTNV-1">
          <mxGeometry x="1960" y="1346.88" width="50" height="50" as="geometry" />
        </mxCell>
        <mxCell id="QzwW5SckIYLt7hIqHZq7-265" value="" style="edgeStyle=orthogonalEdgeStyle;rounded=0;orthogonalLoop=1;jettySize=auto;html=1;entryX=0;entryY=0.5;entryDx=0;entryDy=0;" edge="1" parent="WIyWlLk6GJQsqaUBKTNV-1" source="QzwW5SckIYLt7hIqHZq7-190" target="QzwW5SckIYLt7hIqHZq7-267">
          <mxGeometry relative="1" as="geometry">
            <mxPoint x="380" y="2740" as="targetPoint" />
          </mxGeometry>
        </mxCell>
        <mxCell id="QzwW5SckIYLt7hIqHZq7-266" value="YES" style="edgeLabel;html=1;align=center;verticalAlign=middle;resizable=0;points=[];fontSize=15;" vertex="1" connectable="0" parent="QzwW5SckIYLt7hIqHZq7-265">
          <mxGeometry x="-0.1582" y="-4" relative="1" as="geometry">
            <mxPoint y="-4" as="offset" />
          </mxGeometry>
        </mxCell>
        <mxCell id="QzwW5SckIYLt7hIqHZq7-285" value="" style="edgeStyle=orthogonalEdgeStyle;rounded=0;orthogonalLoop=1;jettySize=auto;html=1;" edge="1" parent="WIyWlLk6GJQsqaUBKTNV-1" source="QzwW5SckIYLt7hIqHZq7-190" target="QzwW5SckIYLt7hIqHZq7-284">
          <mxGeometry relative="1" as="geometry" />
        </mxCell>
        <mxCell id="QzwW5SckIYLt7hIqHZq7-286" value="NO" style="edgeLabel;html=1;align=center;verticalAlign=middle;resizable=0;points=[];fontSize=15;" vertex="1" connectable="0" parent="QzwW5SckIYLt7hIqHZq7-285">
          <mxGeometry x="-0.2275" y="2" relative="1" as="geometry">
            <mxPoint as="offset" />
          </mxGeometry>
        </mxCell>
        <mxCell id="QzwW5SckIYLt7hIqHZq7-190" value="ADMIN&lt;br&gt;?" style="rhombus;whiteSpace=wrap;html=1;fontSize=17;fillColor=#fff2cc;strokeColor=none;gradientColor=#ffd966;fillStyle=hatch;" vertex="1" parent="WIyWlLk6GJQsqaUBKTNV-1">
          <mxGeometry x="130" y="2687" width="100" height="120" as="geometry" />
        </mxCell>
        <mxCell id="QzwW5SckIYLt7hIqHZq7-195" value="" style="edgeStyle=orthogonalEdgeStyle;rounded=0;orthogonalLoop=1;jettySize=auto;html=1;" edge="1" parent="WIyWlLk6GJQsqaUBKTNV-1" source="QzwW5SckIYLt7hIqHZq7-191" target="QzwW5SckIYLt7hIqHZq7-192">
          <mxGeometry relative="1" as="geometry" />
        </mxCell>
        <mxCell id="QzwW5SckIYLt7hIqHZq7-200" value="" style="edgeStyle=orthogonalEdgeStyle;rounded=0;orthogonalLoop=1;jettySize=auto;html=1;" edge="1" parent="WIyWlLk6GJQsqaUBKTNV-1" source="QzwW5SckIYLt7hIqHZq7-191" target="QzwW5SckIYLt7hIqHZq7-199">
          <mxGeometry relative="1" as="geometry" />
        </mxCell>
        <mxCell id="QzwW5SckIYLt7hIqHZq7-191" value="&lt;font style=&quot;color: rgb(0, 0, 0);&quot;&gt;Get Users Data&lt;/font&gt;" style="whiteSpace=wrap;html=1;fontSize=17;fillColor=#e6d0de;strokeColor=none;gradientColor=#d5739d;fillStyle=hatch;" vertex="1" parent="WIyWlLk6GJQsqaUBKTNV-1">
          <mxGeometry x="445" y="2717" width="120" height="60" as="geometry" />
        </mxCell>
        <mxCell id="QzwW5SckIYLt7hIqHZq7-196" value="" style="edgeStyle=orthogonalEdgeStyle;rounded=0;orthogonalLoop=1;jettySize=auto;html=1;" edge="1" parent="WIyWlLk6GJQsqaUBKTNV-1" source="QzwW5SckIYLt7hIqHZq7-192" target="QzwW5SckIYLt7hIqHZq7-193">
          <mxGeometry relative="1" as="geometry" />
        </mxCell>
        <mxCell id="QzwW5SckIYLt7hIqHZq7-192" value="" style="shape=cylinder3;whiteSpace=wrap;html=1;boundedLbl=1;backgroundOutline=1;size=15;fillColor=#f5f5f5;gradientColor=#b3b3b3;strokeColor=#666666;" vertex="1" parent="WIyWlLk6GJQsqaUBKTNV-1">
          <mxGeometry x="475" y="2817" width="60" height="80" as="geometry" />
        </mxCell>
        <mxCell id="QzwW5SckIYLt7hIqHZq7-193" value="&lt;b&gt;DB&lt;/b&gt;&lt;div&gt;&lt;b&gt;3&lt;/b&gt;&lt;/div&gt;" style="ellipse;whiteSpace=wrap;html=1;fillColor=light-dark(#003A48,#EDEDED);strokeColor=none;gradientColor=light-dark(#67AB9F,#EDEDED);fillStyle=hatch;fontColor=#FFFFFF;fontSize=15;" vertex="1" parent="WIyWlLk6GJQsqaUBKTNV-1">
          <mxGeometry x="480" y="2947" width="50" height="50" as="geometry" />
        </mxCell>
        <mxCell id="QzwW5SckIYLt7hIqHZq7-203" value="" style="edgeStyle=orthogonalEdgeStyle;rounded=0;orthogonalLoop=1;jettySize=auto;html=1;" edge="1" parent="WIyWlLk6GJQsqaUBKTNV-1" source="QzwW5SckIYLt7hIqHZq7-199" target="QzwW5SckIYLt7hIqHZq7-201">
          <mxGeometry relative="1" as="geometry" />
        </mxCell>
        <mxCell id="QzwW5SckIYLt7hIqHZq7-231" value="YES" style="edgeLabel;html=1;align=center;verticalAlign=middle;resizable=0;points=[];fontSize=15;" vertex="1" connectable="0" parent="QzwW5SckIYLt7hIqHZq7-203">
          <mxGeometry x="-0.4082" y="-3" relative="1" as="geometry">
            <mxPoint as="offset" />
          </mxGeometry>
        </mxCell>
        <mxCell id="QzwW5SckIYLt7hIqHZq7-228" style="edgeStyle=orthogonalEdgeStyle;rounded=0;orthogonalLoop=1;jettySize=auto;html=1;entryX=0.111;entryY=0.487;entryDx=0;entryDy=0;entryPerimeter=0;" edge="1" parent="WIyWlLk6GJQsqaUBKTNV-1" source="QzwW5SckIYLt7hIqHZq7-199" target="QzwW5SckIYLt7hIqHZq7-229">
          <mxGeometry relative="1" as="geometry">
            <mxPoint x="1125" y="2747" as="targetPoint" />
          </mxGeometry>
        </mxCell>
        <mxCell id="QzwW5SckIYLt7hIqHZq7-230" value="NO" style="edgeLabel;html=1;align=center;verticalAlign=middle;resizable=0;points=[];fontSize=15;" vertex="1" connectable="0" parent="QzwW5SckIYLt7hIqHZq7-228">
          <mxGeometry x="0.0032" y="3" relative="1" as="geometry">
            <mxPoint x="1" y="4" as="offset" />
          </mxGeometry>
        </mxCell>
        <mxCell id="QzwW5SckIYLt7hIqHZq7-199" value="View Pending&amp;nbsp;&lt;br&gt;?" style="rhombus;whiteSpace=wrap;html=1;fontSize=17;fillColor=#fff2cc;strokeColor=none;gradientColor=#ffd966;fillStyle=hatch;" vertex="1" parent="WIyWlLk6GJQsqaUBKTNV-1">
          <mxGeometry x="642" y="2702" width="90" height="90" as="geometry" />
        </mxCell>
        <mxCell id="QzwW5SckIYLt7hIqHZq7-232" value="" style="edgeStyle=orthogonalEdgeStyle;rounded=0;orthogonalLoop=1;jettySize=auto;html=1;" edge="1" parent="WIyWlLk6GJQsqaUBKTNV-1" source="QzwW5SckIYLt7hIqHZq7-201" target="QzwW5SckIYLt7hIqHZq7-202">
          <mxGeometry relative="1" as="geometry" />
        </mxCell>
        <mxCell id="QzwW5SckIYLt7hIqHZq7-201" value="Display Data" style="whiteSpace=wrap;html=1;fontSize=15;fillColor=#e6d0de;strokeColor=none;gradientColor=#d5739d;" vertex="1" parent="WIyWlLk6GJQsqaUBKTNV-1">
          <mxGeometry x="627" y="2844" width="120" height="75" as="geometry" />
        </mxCell>
        <mxCell id="QzwW5SckIYLt7hIqHZq7-211" value="" style="edgeStyle=orthogonalEdgeStyle;rounded=0;orthogonalLoop=1;jettySize=auto;html=1;" edge="1" parent="WIyWlLk6GJQsqaUBKTNV-1" source="QzwW5SckIYLt7hIqHZq7-202" target="QzwW5SckIYLt7hIqHZq7-208">
          <mxGeometry relative="1" as="geometry" />
        </mxCell>
        <mxCell id="QzwW5SckIYLt7hIqHZq7-202" value="Choose DATA" style="shape=parallelogram;perimeter=parallelogramPerimeter;whiteSpace=wrap;html=1;fixedSize=1;fontSize=15;fillColor=#f8cecc;strokeColor=none;gradientColor=#ea6b66;" vertex="1" parent="WIyWlLk6GJQsqaUBKTNV-1">
          <mxGeometry x="627" y="2948" width="120" height="62.5" as="geometry" />
        </mxCell>
        <mxCell id="QzwW5SckIYLt7hIqHZq7-205" value="TRUE" style="edgeStyle=orthogonalEdgeStyle;rounded=0;orthogonalLoop=1;jettySize=auto;html=1;fontSize=14;" edge="1" parent="WIyWlLk6GJQsqaUBKTNV-1" source="QzwW5SckIYLt7hIqHZq7-208" target="QzwW5SckIYLt7hIqHZq7-210">
          <mxGeometry relative="1" as="geometry">
            <mxPoint x="827" y="3103" as="targetPoint" />
          </mxGeometry>
        </mxCell>
        <mxCell id="QzwW5SckIYLt7hIqHZq7-206" value="" style="edgeStyle=orthogonalEdgeStyle;rounded=0;orthogonalLoop=1;jettySize=auto;html=1;entryX=0.5;entryY=0;entryDx=0;entryDy=0;" edge="1" parent="WIyWlLk6GJQsqaUBKTNV-1" source="QzwW5SckIYLt7hIqHZq7-208" target="QzwW5SckIYLt7hIqHZq7-214">
          <mxGeometry relative="1" as="geometry">
            <mxPoint x="687" y="3218" as="targetPoint" />
          </mxGeometry>
        </mxCell>
        <mxCell id="QzwW5SckIYLt7hIqHZq7-207" value="FALSE" style="edgeLabel;html=1;align=center;verticalAlign=middle;resizable=0;points=[];fontSize=15;" vertex="1" connectable="0" parent="QzwW5SckIYLt7hIqHZq7-206">
          <mxGeometry x="-0.2139" y="1" relative="1" as="geometry">
            <mxPoint as="offset" />
          </mxGeometry>
        </mxCell>
        <mxCell id="QzwW5SckIYLt7hIqHZq7-208" value="IS&lt;br&gt;Selected Data Empty?" style="rhombus;whiteSpace=wrap;html=1;fontSize=15;fillColor=#fff2cc;strokeColor=none;gradientColor=#ffd966;" vertex="1" parent="WIyWlLk6GJQsqaUBKTNV-1">
          <mxGeometry x="627" y="3047" width="120" height="130" as="geometry" />
        </mxCell>
        <mxCell id="QzwW5SckIYLt7hIqHZq7-209" style="edgeStyle=orthogonalEdgeStyle;rounded=0;orthogonalLoop=1;jettySize=auto;html=1;" edge="1" parent="WIyWlLk6GJQsqaUBKTNV-1" source="QzwW5SckIYLt7hIqHZq7-210" target="QzwW5SckIYLt7hIqHZq7-202">
          <mxGeometry relative="1" as="geometry">
            <mxPoint x="737" y="2977" as="targetPoint" />
            <Array as="points">
              <mxPoint x="887" y="2977" />
            </Array>
          </mxGeometry>
        </mxCell>
        <mxCell id="QzwW5SckIYLt7hIqHZq7-210" value="Display&lt;div&gt;&lt;span style=&quot;background-color: transparent; color: light-dark(rgb(0, 0, 0), rgb(255, 255, 255));&quot;&gt;&amp;nbsp;error Message&lt;/span&gt;&lt;/div&gt;" style="whiteSpace=wrap;html=1;fontSize=15;fillColor=#e6d0de;strokeColor=none;gradientColor=#d5739d;" vertex="1" parent="WIyWlLk6GJQsqaUBKTNV-1">
          <mxGeometry x="825" y="3074.5" width="120" height="75" as="geometry" />
        </mxCell>
        <mxCell id="QzwW5SckIYLt7hIqHZq7-215" style="edgeStyle=orthogonalEdgeStyle;rounded=0;orthogonalLoop=1;jettySize=auto;html=1;entryX=0;entryY=0.5;entryDx=0;entryDy=0;" edge="1" parent="WIyWlLk6GJQsqaUBKTNV-1" source="QzwW5SckIYLt7hIqHZq7-214" target="QzwW5SckIYLt7hIqHZq7-202">
          <mxGeometry relative="1" as="geometry">
            <Array as="points">
              <mxPoint x="595" y="3293" />
              <mxPoint x="595" y="2978" />
            </Array>
          </mxGeometry>
        </mxCell>
        <mxCell id="QzwW5SckIYLt7hIqHZq7-216" value="NO" style="edgeLabel;html=1;align=center;verticalAlign=middle;resizable=0;points=[];" vertex="1" connectable="0" parent="QzwW5SckIYLt7hIqHZq7-215">
          <mxGeometry x="-0.0292" y="2" relative="1" as="geometry">
            <mxPoint as="offset" />
          </mxGeometry>
        </mxCell>
        <mxCell id="QzwW5SckIYLt7hIqHZq7-223" value="" style="edgeStyle=orthogonalEdgeStyle;rounded=0;orthogonalLoop=1;jettySize=auto;html=1;" edge="1" parent="WIyWlLk6GJQsqaUBKTNV-1" source="QzwW5SckIYLt7hIqHZq7-214" target="QzwW5SckIYLt7hIqHZq7-222">
          <mxGeometry relative="1" as="geometry" />
        </mxCell>
        <mxCell id="QzwW5SckIYLt7hIqHZq7-214" value="Are U sure to change this data&lt;div&gt;?&lt;/div&gt;" style="rhombus;whiteSpace=wrap;html=1;fontSize=15;fillColor=#fff2cc;strokeColor=none;gradientColor=#ffd966;" vertex="1" parent="WIyWlLk6GJQsqaUBKTNV-1">
          <mxGeometry x="627" y="3228" width="120" height="130" as="geometry" />
        </mxCell>
        <mxCell id="QzwW5SckIYLt7hIqHZq7-225" value="" style="edgeStyle=orthogonalEdgeStyle;rounded=0;orthogonalLoop=1;jettySize=auto;html=1;" edge="1" parent="WIyWlLk6GJQsqaUBKTNV-1" source="QzwW5SckIYLt7hIqHZq7-219" target="QzwW5SckIYLt7hIqHZq7-221">
          <mxGeometry relative="1" as="geometry" />
        </mxCell>
        <mxCell id="QzwW5SckIYLt7hIqHZq7-219" value="&lt;b&gt;DB&lt;/b&gt;&lt;div&gt;&lt;b&gt;3&lt;/b&gt;&lt;/div&gt;" style="ellipse;whiteSpace=wrap;html=1;fillColor=light-dark(#003A48,#EDEDED);strokeColor=none;gradientColor=light-dark(#67AB9F,#EDEDED);fillStyle=hatch;fontColor=#FFFFFF;fontSize=15;" vertex="1" parent="WIyWlLk6GJQsqaUBKTNV-1">
          <mxGeometry x="662.5" y="3504" width="50" height="50" as="geometry" />
        </mxCell>
        <mxCell id="QzwW5SckIYLt7hIqHZq7-220" value="&lt;b&gt;3&lt;/b&gt;" style="ellipse;whiteSpace=wrap;html=1;fillColor=light-dark(#003A48,#EDEDED);strokeColor=none;gradientColor=light-dark(#67AB9F,#EDEDED);fillStyle=hatch;fontColor=#FFFFFF;fontSize=15;" vertex="1" parent="WIyWlLk6GJQsqaUBKTNV-1">
          <mxGeometry x="662" y="3707" width="50" height="50" as="geometry" />
        </mxCell>
        <mxCell id="QzwW5SckIYLt7hIqHZq7-226" value="" style="edgeStyle=orthogonalEdgeStyle;rounded=0;orthogonalLoop=1;jettySize=auto;html=1;" edge="1" parent="WIyWlLk6GJQsqaUBKTNV-1" source="QzwW5SckIYLt7hIqHZq7-221" target="QzwW5SckIYLt7hIqHZq7-220">
          <mxGeometry relative="1" as="geometry" />
        </mxCell>
        <mxCell id="QzwW5SckIYLt7hIqHZq7-221" value="SAVE SUCCESFULLY" style="whiteSpace=wrap;html=1;fontSize=15;fillColor=#e6d0de;strokeColor=none;gradientColor=#d5739d;" vertex="1" parent="WIyWlLk6GJQsqaUBKTNV-1">
          <mxGeometry x="627.5" y="3587" width="120" height="75" as="geometry" />
        </mxCell>
        <mxCell id="QzwW5SckIYLt7hIqHZq7-224" value="" style="edgeStyle=orthogonalEdgeStyle;rounded=0;orthogonalLoop=1;jettySize=auto;html=1;entryX=0.5;entryY=0;entryDx=0;entryDy=0;" edge="1" parent="WIyWlLk6GJQsqaUBKTNV-1" source="QzwW5SckIYLt7hIqHZq7-222" target="QzwW5SckIYLt7hIqHZq7-219">
          <mxGeometry relative="1" as="geometry">
            <mxPoint x="685" y="3507" as="targetPoint" />
          </mxGeometry>
        </mxCell>
        <mxCell id="QzwW5SckIYLt7hIqHZq7-222" value="SAVES DATA" style="whiteSpace=wrap;html=1;fontSize=15;fillColor=#e6d0de;strokeColor=none;gradientColor=#d5739d;" vertex="1" parent="WIyWlLk6GJQsqaUBKTNV-1">
          <mxGeometry x="627" y="3397" width="120" height="75" as="geometry" />
        </mxCell>
        <mxCell id="QzwW5SckIYLt7hIqHZq7-280" value="" style="edgeStyle=orthogonalEdgeStyle;rounded=0;orthogonalLoop=1;jettySize=auto;html=1;" edge="1" parent="WIyWlLk6GJQsqaUBKTNV-1" source="QzwW5SckIYLt7hIqHZq7-229" target="QzwW5SckIYLt7hIqHZq7-277">
          <mxGeometry relative="1" as="geometry" />
        </mxCell>
        <mxCell id="QzwW5SckIYLt7hIqHZq7-229" value="View Approval Data&amp;nbsp;&lt;br&gt;?" style="rhombus;whiteSpace=wrap;html=1;fontSize=17;fillColor=#fff2cc;strokeColor=none;gradientColor=#ffd966;fillStyle=hatch;" vertex="1" parent="WIyWlLk6GJQsqaUBKTNV-1">
          <mxGeometry x="1125" y="2689.5" width="90" height="115" as="geometry" />
        </mxCell>
        <mxCell id="QzwW5SckIYLt7hIqHZq7-233" value="" style="edgeStyle=orthogonalEdgeStyle;rounded=0;orthogonalLoop=1;jettySize=auto;html=1;exitX=0.5;exitY=1;exitDx=0;exitDy=0;" edge="1" parent="WIyWlLk6GJQsqaUBKTNV-1" target="QzwW5SckIYLt7hIqHZq7-235" source="QzwW5SckIYLt7hIqHZq7-229">
          <mxGeometry relative="1" as="geometry">
            <mxPoint x="1170" y="2817" as="sourcePoint" />
          </mxGeometry>
        </mxCell>
        <mxCell id="QzwW5SckIYLt7hIqHZq7-234" value="YES" style="edgeLabel;html=1;align=center;verticalAlign=middle;resizable=0;points=[];fontSize=15;" vertex="1" connectable="0" parent="QzwW5SckIYLt7hIqHZq7-233">
          <mxGeometry x="-0.4082" y="-3" relative="1" as="geometry">
            <mxPoint as="offset" />
          </mxGeometry>
        </mxCell>
        <mxCell id="QzwW5SckIYLt7hIqHZq7-237" value="" style="edgeStyle=orthogonalEdgeStyle;rounded=0;orthogonalLoop=1;jettySize=auto;html=1;" edge="1" parent="WIyWlLk6GJQsqaUBKTNV-1" source="QzwW5SckIYLt7hIqHZq7-235" target="QzwW5SckIYLt7hIqHZq7-236">
          <mxGeometry relative="1" as="geometry" />
        </mxCell>
        <mxCell id="QzwW5SckIYLt7hIqHZq7-235" value="Display Data" style="whiteSpace=wrap;html=1;fontSize=15;fillColor=#e6d0de;strokeColor=none;gradientColor=#d5739d;" vertex="1" parent="WIyWlLk6GJQsqaUBKTNV-1">
          <mxGeometry x="1110" y="2847" width="120" height="75" as="geometry" />
        </mxCell>
        <mxCell id="QzwW5SckIYLt7hIqHZq7-239" value="" style="edgeStyle=orthogonalEdgeStyle;rounded=0;orthogonalLoop=1;jettySize=auto;html=1;" edge="1" parent="WIyWlLk6GJQsqaUBKTNV-1" source="QzwW5SckIYLt7hIqHZq7-236" target="QzwW5SckIYLt7hIqHZq7-238">
          <mxGeometry relative="1" as="geometry" />
        </mxCell>
        <mxCell id="QzwW5SckIYLt7hIqHZq7-236" value="Choose DATA" style="shape=parallelogram;perimeter=parallelogramPerimeter;whiteSpace=wrap;html=1;fixedSize=1;fontSize=15;fillColor=#f8cecc;strokeColor=none;gradientColor=#ea6b66;" vertex="1" parent="WIyWlLk6GJQsqaUBKTNV-1">
          <mxGeometry x="1110" y="2967" width="120" height="62.5" as="geometry" />
        </mxCell>
        <mxCell id="QzwW5SckIYLt7hIqHZq7-238" value="IS&lt;br&gt;Selected Data Empty?" style="rhombus;whiteSpace=wrap;html=1;fontSize=15;fillColor=#fff2cc;strokeColor=none;gradientColor=#ffd966;" vertex="1" parent="WIyWlLk6GJQsqaUBKTNV-1">
          <mxGeometry x="1110" y="3074.5" width="120" height="130" as="geometry" />
        </mxCell>
        <mxCell id="QzwW5SckIYLt7hIqHZq7-240" value="TRUE" style="edgeStyle=orthogonalEdgeStyle;rounded=0;orthogonalLoop=1;jettySize=auto;html=1;fontSize=14;exitX=1;exitY=0.5;exitDx=0;exitDy=0;" edge="1" parent="WIyWlLk6GJQsqaUBKTNV-1" target="QzwW5SckIYLt7hIqHZq7-242" source="QzwW5SckIYLt7hIqHZq7-238">
          <mxGeometry relative="1" as="geometry">
            <mxPoint x="1314" y="3130.5" as="targetPoint" />
            <mxPoint x="1234" y="3139.5" as="sourcePoint" />
          </mxGeometry>
        </mxCell>
        <mxCell id="QzwW5SckIYLt7hIqHZq7-241" style="edgeStyle=orthogonalEdgeStyle;rounded=0;orthogonalLoop=1;jettySize=auto;html=1;" edge="1" parent="WIyWlLk6GJQsqaUBKTNV-1" source="QzwW5SckIYLt7hIqHZq7-242" target="QzwW5SckIYLt7hIqHZq7-236">
          <mxGeometry relative="1" as="geometry">
            <mxPoint x="1225" y="3004.5" as="targetPoint" />
            <Array as="points">
              <mxPoint x="1374" y="3004" />
            </Array>
          </mxGeometry>
        </mxCell>
        <mxCell id="QzwW5SckIYLt7hIqHZq7-242" value="Display&lt;div&gt;&lt;span style=&quot;background-color: transparent; color: light-dark(rgb(0, 0, 0), rgb(255, 255, 255));&quot;&gt;&amp;nbsp;error Message&lt;/span&gt;&lt;/div&gt;" style="whiteSpace=wrap;html=1;fontSize=15;fillColor=#e6d0de;strokeColor=none;gradientColor=#d5739d;" vertex="1" parent="WIyWlLk6GJQsqaUBKTNV-1">
          <mxGeometry x="1312" y="3102" width="120" height="75" as="geometry" />
        </mxCell>
        <mxCell id="QzwW5SckIYLt7hIqHZq7-243" value="" style="edgeStyle=orthogonalEdgeStyle;rounded=0;orthogonalLoop=1;jettySize=auto;html=1;entryX=0.5;entryY=0;entryDx=0;entryDy=0;" edge="1" parent="WIyWlLk6GJQsqaUBKTNV-1" target="QzwW5SckIYLt7hIqHZq7-245" source="QzwW5SckIYLt7hIqHZq7-238">
          <mxGeometry relative="1" as="geometry">
            <mxPoint x="1170" y="3245.5" as="targetPoint" />
            <mxPoint x="1170" y="3204.5" as="sourcePoint" />
          </mxGeometry>
        </mxCell>
        <mxCell id="QzwW5SckIYLt7hIqHZq7-244" value="FALSE" style="edgeLabel;html=1;align=center;verticalAlign=middle;resizable=0;points=[];fontSize=15;" vertex="1" connectable="0" parent="QzwW5SckIYLt7hIqHZq7-243">
          <mxGeometry x="-0.2139" y="1" relative="1" as="geometry">
            <mxPoint as="offset" />
          </mxGeometry>
        </mxCell>
        <mxCell id="QzwW5SckIYLt7hIqHZq7-247" value="" style="edgeStyle=orthogonalEdgeStyle;rounded=0;orthogonalLoop=1;jettySize=auto;html=1;" edge="1" parent="WIyWlLk6GJQsqaUBKTNV-1" source="QzwW5SckIYLt7hIqHZq7-245" target="QzwW5SckIYLt7hIqHZq7-246">
          <mxGeometry relative="1" as="geometry" />
        </mxCell>
        <mxCell id="QzwW5SckIYLt7hIqHZq7-248" value="DENIED" style="edgeLabel;html=1;align=center;verticalAlign=middle;resizable=0;points=[];fontSize=15;" vertex="1" connectable="0" parent="QzwW5SckIYLt7hIqHZq7-247">
          <mxGeometry x="-0.1812" y="-1" relative="1" as="geometry">
            <mxPoint x="1" as="offset" />
          </mxGeometry>
        </mxCell>
        <mxCell id="QzwW5SckIYLt7hIqHZq7-251" value="" style="edgeStyle=orthogonalEdgeStyle;rounded=0;orthogonalLoop=1;jettySize=auto;html=1;" edge="1" parent="WIyWlLk6GJQsqaUBKTNV-1" source="QzwW5SckIYLt7hIqHZq7-245" target="QzwW5SckIYLt7hIqHZq7-250">
          <mxGeometry relative="1" as="geometry" />
        </mxCell>
        <mxCell id="QzwW5SckIYLt7hIqHZq7-252" value="APPROVED" style="edgeLabel;html=1;align=center;verticalAlign=middle;resizable=0;points=[];fontSize=15;" vertex="1" connectable="0" parent="QzwW5SckIYLt7hIqHZq7-251">
          <mxGeometry x="-0.3029" y="1" relative="1" as="geometry">
            <mxPoint as="offset" />
          </mxGeometry>
        </mxCell>
        <mxCell id="QzwW5SckIYLt7hIqHZq7-245" value="&lt;br&gt;&amp;nbsp; Approved &lt;br&gt;or&lt;br&gt;&amp;nbsp;Denied&lt;br&gt;?" style="rhombus;whiteSpace=wrap;html=1;fontSize=15;fillColor=#fff2cc;strokeColor=none;gradientColor=#ffd966;" vertex="1" parent="WIyWlLk6GJQsqaUBKTNV-1">
          <mxGeometry x="1110" y="3267" width="120" height="130" as="geometry" />
        </mxCell>
        <mxCell id="QzwW5SckIYLt7hIqHZq7-249" value="" style="edgeStyle=orthogonalEdgeStyle;rounded=0;orthogonalLoop=1;jettySize=auto;html=1;" edge="1" parent="WIyWlLk6GJQsqaUBKTNV-1" source="QzwW5SckIYLt7hIqHZq7-246" target="QzwW5SckIYLt7hIqHZq7-242">
          <mxGeometry relative="1" as="geometry" />
        </mxCell>
        <mxCell id="QzwW5SckIYLt7hIqHZq7-246" value="Notify Loaner" style="whiteSpace=wrap;html=1;fontSize=15;fillColor=#e6d0de;strokeColor=none;gradientColor=#d5739d;" vertex="1" parent="WIyWlLk6GJQsqaUBKTNV-1">
          <mxGeometry x="1312" y="3294.5" width="120" height="75" as="geometry" />
        </mxCell>
        <mxCell id="QzwW5SckIYLt7hIqHZq7-254" value="" style="edgeStyle=orthogonalEdgeStyle;rounded=0;orthogonalLoop=1;jettySize=auto;html=1;" edge="1" parent="WIyWlLk6GJQsqaUBKTNV-1" source="QzwW5SckIYLt7hIqHZq7-250" target="QzwW5SckIYLt7hIqHZq7-253">
          <mxGeometry relative="1" as="geometry" />
        </mxCell>
        <mxCell id="QzwW5SckIYLt7hIqHZq7-250" value="Fund Release" style="whiteSpace=wrap;html=1;fontSize=15;fillColor=#e6d0de;strokeColor=none;gradientColor=#d5739d;" vertex="1" parent="WIyWlLk6GJQsqaUBKTNV-1">
          <mxGeometry x="1110" y="3447" width="120" height="75" as="geometry" />
        </mxCell>
        <mxCell id="QzwW5SckIYLt7hIqHZq7-256" value="" style="edgeStyle=orthogonalEdgeStyle;rounded=0;orthogonalLoop=1;jettySize=auto;html=1;" edge="1" parent="WIyWlLk6GJQsqaUBKTNV-1" source="QzwW5SckIYLt7hIqHZq7-253" target="QzwW5SckIYLt7hIqHZq7-255">
          <mxGeometry relative="1" as="geometry" />
        </mxCell>
        <mxCell id="QzwW5SckIYLt7hIqHZq7-253" value="Loan Payment Processing" style="shape=parallelogram;perimeter=parallelogramPerimeter;whiteSpace=wrap;html=1;fixedSize=1;fontSize=15;fillColor=#f8cecc;strokeColor=none;gradientColor=#ea6b66;" vertex="1" parent="WIyWlLk6GJQsqaUBKTNV-1">
          <mxGeometry x="1100" y="3577" width="140" height="70" as="geometry" />
        </mxCell>
        <mxCell id="QzwW5SckIYLt7hIqHZq7-257" style="edgeStyle=orthogonalEdgeStyle;rounded=0;orthogonalLoop=1;jettySize=auto;html=1;entryX=0.5;entryY=1;entryDx=0;entryDy=0;" edge="1" parent="WIyWlLk6GJQsqaUBKTNV-1" source="QzwW5SckIYLt7hIqHZq7-255" target="QzwW5SckIYLt7hIqHZq7-246">
          <mxGeometry relative="1" as="geometry" />
        </mxCell>
        <mxCell id="QzwW5SckIYLt7hIqHZq7-258" value="TRUE / UNPAID" style="edgeLabel;html=1;align=center;verticalAlign=middle;resizable=0;points=[];fontSize=15;" vertex="1" connectable="0" parent="QzwW5SckIYLt7hIqHZq7-257">
          <mxGeometry x="0.0715" y="-4" relative="1" as="geometry">
            <mxPoint x="-4" y="-46" as="offset" />
          </mxGeometry>
        </mxCell>
        <mxCell id="QzwW5SckIYLt7hIqHZq7-261" value="" style="edgeStyle=orthogonalEdgeStyle;rounded=0;orthogonalLoop=1;jettySize=auto;html=1;" edge="1" parent="WIyWlLk6GJQsqaUBKTNV-1" source="QzwW5SckIYLt7hIqHZq7-255" target="QzwW5SckIYLt7hIqHZq7-260">
          <mxGeometry relative="1" as="geometry" />
        </mxCell>
        <mxCell id="QzwW5SckIYLt7hIqHZq7-262" value="FALSE / PAID" style="edgeLabel;html=1;align=center;verticalAlign=middle;resizable=0;points=[];fontSize=15;" vertex="1" connectable="0" parent="QzwW5SckIYLt7hIqHZq7-261">
          <mxGeometry x="-0.3333" y="2" relative="1" as="geometry">
            <mxPoint x="1" y="-22" as="offset" />
          </mxGeometry>
        </mxCell>
        <mxCell id="QzwW5SckIYLt7hIqHZq7-255" value="IS&lt;br&gt;Payment&amp;nbsp;&lt;div&gt;Due?&lt;/div&gt;" style="rhombus;whiteSpace=wrap;html=1;fontSize=15;fillColor=#fff2cc;strokeColor=none;gradientColor=#ffd966;" vertex="1" parent="WIyWlLk6GJQsqaUBKTNV-1">
          <mxGeometry x="1110" y="3687" width="120" height="130" as="geometry" />
        </mxCell>
        <mxCell id="QzwW5SckIYLt7hIqHZq7-263" style="edgeStyle=orthogonalEdgeStyle;rounded=0;orthogonalLoop=1;jettySize=auto;html=1;entryX=1;entryY=0.5;entryDx=0;entryDy=0;" edge="1" parent="WIyWlLk6GJQsqaUBKTNV-1" source="QzwW5SckIYLt7hIqHZq7-260" target="QzwW5SckIYLt7hIqHZq7-222">
          <mxGeometry relative="1" as="geometry">
            <Array as="points">
              <mxPoint x="935" y="3434" />
            </Array>
          </mxGeometry>
        </mxCell>
        <mxCell id="QzwW5SckIYLt7hIqHZq7-260" value="Update Record" style="whiteSpace=wrap;html=1;fontSize=15;fillColor=#e6d0de;strokeColor=none;gradientColor=#d5739d;" vertex="1" parent="WIyWlLk6GJQsqaUBKTNV-1">
          <mxGeometry x="875" y="3647" width="120" height="75" as="geometry" />
        </mxCell>
        <mxCell id="QzwW5SckIYLt7hIqHZq7-269" value="" style="edgeStyle=orthogonalEdgeStyle;rounded=0;orthogonalLoop=1;jettySize=auto;html=1;" edge="1" parent="WIyWlLk6GJQsqaUBKTNV-1" source="QzwW5SckIYLt7hIqHZq7-267" target="QzwW5SckIYLt7hIqHZq7-191">
          <mxGeometry relative="1" as="geometry" />
        </mxCell>
        <mxCell id="QzwW5SckIYLt7hIqHZq7-267" value="&lt;font style=&quot;color: rgb(0, 0, 0);&quot;&gt;Admin Page&lt;/font&gt;" style="whiteSpace=wrap;html=1;fontSize=17;fillColor=#e6d0de;strokeColor=none;gradientColor=#d5739d;fillStyle=hatch;" vertex="1" parent="WIyWlLk6GJQsqaUBKTNV-1">
          <mxGeometry x="290" y="2717" width="120" height="60" as="geometry" />
        </mxCell>
        <mxCell id="QzwW5SckIYLt7hIqHZq7-270" value="" style="edgeStyle=orthogonalEdgeStyle;rounded=0;orthogonalLoop=1;jettySize=auto;html=1;" edge="1" parent="WIyWlLk6GJQsqaUBKTNV-1" source="QzwW5SckIYLt7hIqHZq7-268" target="QzwW5SckIYLt7hIqHZq7-267">
          <mxGeometry relative="1" as="geometry" />
        </mxCell>
        <mxCell id="QzwW5SckIYLt7hIqHZq7-268" value="3" style="ellipse;whiteSpace=wrap;html=1;fillColor=light-dark(#003A48,#EDEDED);strokeColor=none;gradientColor=light-dark(#67AB9F,#EDEDED);fillStyle=hatch;fontColor=#FFFFFF;fontSize=15;" vertex="1" parent="WIyWlLk6GJQsqaUBKTNV-1">
          <mxGeometry x="325" y="2830.75" width="50" height="50" as="geometry" />
        </mxCell>
        <mxCell id="QzwW5SckIYLt7hIqHZq7-274" value="" style="edgeStyle=orthogonalEdgeStyle;rounded=0;orthogonalLoop=1;jettySize=auto;html=1;" edge="1" parent="WIyWlLk6GJQsqaUBKTNV-1" source="QzwW5SckIYLt7hIqHZq7-271" target="QzwW5SckIYLt7hIqHZq7-78">
          <mxGeometry relative="1" as="geometry" />
        </mxCell>
        <mxCell id="QzwW5SckIYLt7hIqHZq7-271" value="&lt;b&gt;4&lt;/b&gt;" style="ellipse;whiteSpace=wrap;html=1;fillColor=light-dark(#003A48,#EDEDED);strokeColor=none;gradientColor=light-dark(#67AB9F,#EDEDED);fillStyle=hatch;fontColor=#FFFFFF;fontSize=15;" vertex="1" parent="WIyWlLk6GJQsqaUBKTNV-1">
          <mxGeometry x="812.5" y="1230" width="50" height="50" as="geometry" />
        </mxCell>
        <mxCell id="QzwW5SckIYLt7hIqHZq7-275" value="" style="edgeStyle=orthogonalEdgeStyle;rounded=0;orthogonalLoop=1;jettySize=auto;html=1;" edge="1" parent="WIyWlLk6GJQsqaUBKTNV-1" source="QzwW5SckIYLt7hIqHZq7-272" target="QzwW5SckIYLt7hIqHZq7-80">
          <mxGeometry relative="1" as="geometry" />
        </mxCell>
        <mxCell id="QzwW5SckIYLt7hIqHZq7-272" value="&lt;b&gt;5&lt;/b&gt;" style="ellipse;whiteSpace=wrap;html=1;fillColor=light-dark(#003A48,#EDEDED);strokeColor=none;gradientColor=light-dark(#67AB9F,#EDEDED);fillStyle=hatch;fontColor=#FFFFFF;fontSize=15;" vertex="1" parent="WIyWlLk6GJQsqaUBKTNV-1">
          <mxGeometry x="1270" y="1230" width="50" height="50" as="geometry" />
        </mxCell>
        <mxCell id="QzwW5SckIYLt7hIqHZq7-276" value="" style="edgeStyle=orthogonalEdgeStyle;rounded=0;orthogonalLoop=1;jettySize=auto;html=1;" edge="1" parent="WIyWlLk6GJQsqaUBKTNV-1" source="QzwW5SckIYLt7hIqHZq7-273" target="QzwW5SckIYLt7hIqHZq7-140">
          <mxGeometry relative="1" as="geometry" />
        </mxCell>
        <mxCell id="QzwW5SckIYLt7hIqHZq7-273" value="&lt;b&gt;6&lt;/b&gt;" style="ellipse;whiteSpace=wrap;html=1;fillColor=light-dark(#003A48,#EDEDED);strokeColor=none;gradientColor=light-dark(#67AB9F,#EDEDED);fillStyle=hatch;fontColor=#FFFFFF;fontSize=15;" vertex="1" parent="WIyWlLk6GJQsqaUBKTNV-1">
          <mxGeometry x="1775" y="1230" width="50" height="50" as="geometry" />
        </mxCell>
        <mxCell id="QzwW5SckIYLt7hIqHZq7-281" style="edgeStyle=orthogonalEdgeStyle;rounded=0;orthogonalLoop=1;jettySize=auto;html=1;" edge="1" parent="WIyWlLk6GJQsqaUBKTNV-1" source="QzwW5SckIYLt7hIqHZq7-277" target="QzwW5SckIYLt7hIqHZq7-278">
          <mxGeometry relative="1" as="geometry" />
        </mxCell>
        <mxCell id="QzwW5SckIYLt7hIqHZq7-277" value="&lt;b&gt;4&lt;/b&gt;" style="ellipse;whiteSpace=wrap;html=1;fillColor=light-dark(#003A48,#EDEDED);strokeColor=none;gradientColor=light-dark(#67AB9F,#EDEDED);fillStyle=hatch;fontColor=#FFFFFF;fontSize=15;" vertex="1" parent="WIyWlLk6GJQsqaUBKTNV-1">
          <mxGeometry x="1305" y="2722" width="50" height="50" as="geometry" />
        </mxCell>
        <mxCell id="QzwW5SckIYLt7hIqHZq7-283" style="edgeStyle=orthogonalEdgeStyle;rounded=0;orthogonalLoop=1;jettySize=auto;html=1;entryX=0;entryY=0.5;entryDx=0;entryDy=0;" edge="1" parent="WIyWlLk6GJQsqaUBKTNV-1" source="QzwW5SckIYLt7hIqHZq7-278" target="QzwW5SckIYLt7hIqHZq7-279">
          <mxGeometry relative="1" as="geometry" />
        </mxCell>
        <mxCell id="QzwW5SckIYLt7hIqHZq7-278" value="&lt;b&gt;5&lt;/b&gt;" style="ellipse;whiteSpace=wrap;html=1;fillColor=light-dark(#003A48,#EDEDED);strokeColor=none;gradientColor=light-dark(#67AB9F,#EDEDED);fillStyle=hatch;fontColor=#FFFFFF;fontSize=15;" vertex="1" parent="WIyWlLk6GJQsqaUBKTNV-1">
          <mxGeometry x="1455" y="2722" width="50" height="50" as="geometry" />
        </mxCell>
        <mxCell id="QzwW5SckIYLt7hIqHZq7-279" value="&lt;b&gt;6&lt;/b&gt;" style="ellipse;whiteSpace=wrap;html=1;fillColor=light-dark(#003A48,#EDEDED);strokeColor=none;gradientColor=light-dark(#67AB9F,#EDEDED);fillStyle=hatch;fontColor=#FFFFFF;fontSize=15;" vertex="1" parent="WIyWlLk6GJQsqaUBKTNV-1">
          <mxGeometry x="1620" y="2722" width="50" height="50" as="geometry" />
        </mxCell>
        <mxCell id="QzwW5SckIYLt7hIqHZq7-284" value="&lt;b&gt;END&lt;/b&gt;" style="ellipse;whiteSpace=wrap;html=1;fillColor=light-dark(#003A48,#EDEDED);strokeColor=none;gradientColor=light-dark(#67AB9F,#EDEDED);fillStyle=hatch;fontColor=#FFFFFF;fontSize=17;" vertex="1" parent="WIyWlLk6GJQsqaUBKTNV-1">
          <mxGeometry x="120" y="2883" width="120" height="80" as="geometry" />
        </mxCell>
      </root>
    </mxGraphModel>
  </diagram>
</mxfile>
